<svg width="49" height="35" viewBox="0 0 49 35" fill="none" xmlns="http://www.w3.org/2000/svg">
<g clip-path="url(#clip0_320_4947)">
<path d="M6.44403 28.3239C7.43162 25.368 9.36416 23.8141 11.9831 23.8684C14.1687 23.9144 16.5125 25.3123 17.269 28.289H33.2521C33.2603 28.1108 33.2755 27.927 33.2755 27.7446C33.2755 19.9115 33.2755 12.0788 33.2755 4.24656C33.2781 4.0041 33.2564 3.76199 33.2108 3.52395C33.0444 2.68856 32.5231 2.27086 31.6978 2.27086C28.5067 2.27086 25.3156 2.27086 22.1245 2.27086C17.5441 2.27086 12.9633 2.27086 8.38207 2.27086C7.35872 2.27086 7.0066 2.52427 6.67098 3.48635C6.42752 4.19087 5.85807 4.52502 5.24599 4.32174C4.6339 4.11847 4.38081 3.54622 4.55825 2.85146C4.74838 2.0416 5.20249 1.32019 5.84733 0.803606C6.49217 0.287027 7.29013 0.0054066 8.11248 0.00417694C15.9885 -0.00139231 23.864 -0.00139231 31.739 0.00417694C32.7041 -0.00858019 33.6353 0.364325 34.3305 1.04201C35.0258 1.71969 35.429 2.6475 35.4528 3.62419C35.5065 5.37712 35.4735 7.13283 35.4776 8.88575C35.4776 9.07232 35.4776 9.25889 35.4776 9.50672H36.1419C38.5105 9.50672 40.8777 9.52622 43.2449 9.49559C44.0496 9.48584 44.542 9.77405 44.8762 10.537C46.1458 13.4609 47.4731 16.3472 48.7578 19.2585C48.909 19.6052 48.989 19.9794 48.993 20.3584C49.0123 23.2823 49.0068 26.1936 49.0027 29.1119C49.0027 30.177 48.6299 30.5404 47.5708 30.5446C46.6079 30.5446 46.6079 30.5446 46.2489 31.4747C45.3824 33.7024 43.2463 35.0877 40.8172 34.9958C38.6054 34.9137 36.5532 33.2805 35.8751 31.0681C35.8256 30.9038 35.7761 30.7395 35.7252 30.5683H17.2965C16.2044 33.5506 14.4218 35 11.8689 35C9.31602 35 7.53478 33.5506 6.43165 30.5446C5.93648 30.5446 5.42342 30.5251 4.91175 30.5446C2.52804 30.6532 0.881599 28.3907 1.14844 26.3259C1.20621 25.8789 1.22822 25.4264 1.27086 24.9781C1.33413 24.282 1.83756 23.8155 2.45239 23.8643C3.1195 23.9172 3.55277 24.4964 3.4675 25.2301C3.41935 25.6617 3.37121 26.092 3.32995 26.5236C3.23504 27.5609 3.89665 28.3071 4.92413 28.3197C5.43718 28.328 5.94885 28.3239 6.44403 28.3239ZM46.7537 21.1339C46.2971 21.0476 45.8377 20.9947 45.3962 20.8708C40.8763 19.6442 38.0236 16.7495 36.8833 12.1396C36.8476 12.0004 36.6935 11.7943 36.5725 11.7762C36.2243 11.7463 35.8746 11.7407 35.5257 11.7595C35.318 13.291 35.4349 28.0746 35.7018 28.3782C35.7651 28.1637 35.8132 27.9911 35.8655 27.8212C36.2134 26.6771 36.9143 25.6759 37.8653 24.9643C38.8163 24.2528 39.9674 23.8682 41.1501 23.8671C43.5764 23.8754 45.6891 25.5044 46.4209 27.9173C46.4763 28.0661 46.542 28.2108 46.6176 28.3503L46.7414 28.3057V25.8539C45.8074 25.7954 45.5571 25.5545 45.5241 24.7192C45.4746 23.4883 45.6616 23.2349 46.7537 23.072V21.1339ZM11.8868 32.7444C12.7528 32.7419 13.5829 32.3934 14.1964 31.7747C14.8099 31.156 15.1574 30.3171 15.1632 29.4405C15.1625 29.0021 15.076 28.5682 14.9087 28.1639C14.7415 27.7595 14.4967 27.3927 14.1887 27.0846C13.8806 26.7765 13.5153 26.5333 13.1138 26.3689C12.7124 26.2045 12.2827 26.1222 11.8497 26.1268C10.984 26.1282 10.154 26.4758 9.5403 27.0939C8.92664 27.7119 8.57907 28.5503 8.57327 29.4266C8.5747 29.8649 8.66165 30.2987 8.82912 30.7029C8.99659 31.1072 9.24128 31.474 9.54916 31.7822C9.85703 32.0905 10.222 32.3342 10.6232 32.4993C11.0243 32.6645 11.4537 32.7478 11.8868 32.7444ZM41.1184 32.7444C41.7652 32.7414 42.3965 32.5443 42.9326 32.178C43.4686 31.8117 43.8853 31.2927 44.1299 30.6866C44.3745 30.0806 44.436 29.4147 44.3067 28.7732C44.1774 28.1318 43.8631 27.5436 43.4034 27.083C42.9438 26.6224 42.3595 26.3101 41.7246 26.1857C41.0896 26.0613 40.4324 26.1303 39.8362 26.384C39.24 26.6378 38.7315 27.0648 38.3751 27.611C38.0186 28.1573 37.8302 28.7984 37.8338 29.453C37.8358 29.888 37.9225 30.3183 38.089 30.7192C38.2555 31.1202 38.4986 31.484 38.8042 31.7897C39.1098 32.0955 39.472 32.3372 39.8701 32.501C40.2682 32.6648 40.6942 32.7476 41.1239 32.7444H41.1184ZM39.1322 11.7581C39.7086 15.2932 43.1871 18.3799 46.0468 18.618C45.0592 16.4154 44.0798 14.2239 43.0854 12.0379C43.0485 11.9687 42.9967 11.9087 42.9339 11.8624C42.871 11.8162 42.7987 11.7848 42.7222 11.7706C41.5366 11.7511 40.3592 11.7581 39.1322 11.7581Z" fill="black"/>
<path d="M18.6285 21.45C17.0674 21.45 15.5076 21.45 13.9519 21.45C12.9657 21.45 12.5077 20.9724 12.6136 19.9978C12.8474 17.862 13.1101 15.729 13.3605 13.5932C13.4526 12.8177 13.5599 12.0449 13.6356 11.2694C13.6476 10.9931 13.7213 10.7232 13.8511 10.4799C13.981 10.2366 14.1635 10.0262 14.3852 9.86456C15.8391 8.76184 17.2531 7.60483 18.7138 6.51186C19.0407 6.27237 19.4303 6.13623 19.8335 6.12062C22.9874 6.10113 26.1428 6.12062 29.2981 6.14012C30.1385 6.14012 30.5869 6.59262 30.5058 7.4475C30.3517 9.08625 30.1454 10.7194 29.9556 12.3554C29.8002 13.6976 29.6282 15.0384 29.4838 16.382C29.4692 16.641 29.3987 16.8937 29.2772 17.1222C29.1558 17.3507 28.9864 17.5495 28.7809 17.7047C27.3339 18.8032 25.9282 19.9449 24.4812 21.0142C24.1231 21.2672 23.7015 21.412 23.2653 21.4319C21.7165 21.4765 20.1718 21.45 18.6285 21.45ZM23.4235 12.1034H15.7717L14.9464 19.168H22.594C22.8691 16.8122 23.1442 14.4773 23.4235 12.1034ZM27.9997 9.79355C27.2198 10.402 26.5238 10.9241 25.8553 11.481C25.7343 11.5813 25.6916 11.811 25.6682 11.9892C25.5307 13.0697 25.4041 14.1515 25.2803 15.2347C25.1882 16.0437 25.1057 16.8526 25.0053 17.798C25.7494 17.2202 26.3807 16.7537 26.9818 16.2441C27.1574 16.0756 27.2738 15.8537 27.3133 15.612C27.4343 14.8783 27.51 14.1376 27.5884 13.3996C27.7273 12.2371 27.8552 11.0759 27.9997 9.79355ZM26.096 8.44718C26.0226 8.41496 25.9461 8.39069 25.8677 8.37478C23.9851 8.35807 22.1021 8.34368 20.2186 8.33162C20.1173 8.31988 20.0149 8.33878 19.9242 8.38592C19.3424 8.82589 18.7688 9.27978 18.154 9.76013C18.2198 9.79426 18.2896 9.81998 18.3617 9.83671C20.2612 9.83671 22.1621 9.84506 24.063 9.83671C24.212 9.83016 24.3557 9.77877 24.4757 9.68912C25.0053 9.30345 25.5142 8.8969 26.096 8.44718Z" fill="#FFD600"/>
<path d="M8.00666 5.52471C9.22396 5.52471 10.4426 5.52471 11.6599 5.52471C12.4605 5.52471 12.99 5.99252 12.9804 6.66641C12.9708 7.34029 12.4495 7.78026 11.6379 7.78026C9.20333 7.78026 6.76827 7.78026 4.33276 7.78026C3.5226 7.78026 3.01505 7.32775 3.02055 6.63856C3.02605 5.94936 3.53361 5.52471 4.35339 5.52471C5.57206 5.52192 6.78936 5.52471 8.00666 5.52471Z" fill="#FFD600"/>
<path d="M4.33453 14.3589C3.32493 14.3589 2.31396 14.3589 1.30848 14.3589C0.498326 14.3589 0.000402595 13.9148 0.0059045 13.2186C0.0059045 12.5489 0.505203 12.1048 1.28235 12.1048C3.33823 12.0964 5.39365 12.0964 7.44861 12.1048C8.24639 12.1048 8.77732 12.5809 8.76632 13.2507C8.75532 13.9204 8.23539 14.3645 7.42385 14.3645C6.39087 14.3617 5.36201 14.3589 4.33453 14.3589Z" fill="#FFD600"/>
<path d="M4.59127 18.8659C5.10295 18.8659 5.616 18.8561 6.12906 18.8659C6.85806 18.8826 7.33673 19.3378 7.33535 19.9964C7.33397 20.655 6.85531 21.1103 6.12493 21.1214C5.06581 21.1353 4.00578 21.1353 2.94483 21.1214C2.21995 21.1103 1.75642 20.6369 1.7688 19.9658C1.78118 19.3253 2.24334 18.884 2.94896 18.8659C3.4964 18.8547 4.04383 18.8659 4.59127 18.8659Z" fill="#FFD600"/>
<path d="M11.8562 30.5265C11.5629 30.5236 11.2826 30.4034 11.0765 30.1921C10.8704 29.9808 10.7551 29.6957 10.7559 29.3987C10.768 29.1019 10.8958 28.822 11.1113 28.6203C11.3268 28.4186 11.6125 28.3115 11.9058 28.3225C12.1905 28.331 12.4611 28.4502 12.6613 28.6552C12.8616 28.8603 12.9762 29.1355 12.9814 29.4238C12.9763 29.7209 12.855 30.0039 12.6441 30.2107C12.4331 30.4174 12.1498 30.531 11.8562 30.5265Z" fill="black"/>
<path d="M41.1532 28.3211C41.3668 28.3307 41.5729 28.4037 41.7458 28.531C41.9188 28.6583 42.0508 28.8343 42.1256 29.0371C42.2004 29.2399 42.2145 29.4605 42.1663 29.6713C42.1181 29.8822 42.0097 30.0741 41.8545 30.223C41.6993 30.3719 41.5043 30.4713 41.2937 30.5088C41.0831 30.5463 40.8662 30.5202 40.6702 30.4338C40.4741 30.3474 40.3075 30.2045 40.1911 30.0229C40.0747 29.8413 40.0137 29.6291 40.0157 29.4127C40.0185 29.265 40.0503 29.1195 40.1092 28.9844C40.1681 28.8494 40.2529 28.7275 40.3588 28.6259C40.4646 28.5244 40.5894 28.4451 40.7258 28.3928C40.8621 28.3404 41.0074 28.3161 41.1532 28.3211Z" fill="black"/>
</g>
<defs>
<clipPath id="clip0_320_4947">
<rect width="49" height="35" fill="white"/>
</clipPath>
</defs>
</svg>
