<svg width="49" height="39" viewBox="0 0 49 39" fill="none" xmlns="http://www.w3.org/2000/svg">
<mask id="mask0_320_4961" style="mask-type:alpha" maskUnits="userSpaceOnUse" x="0" y="0" width="49" height="39">
<g clip-path="url(#clip0_320_4961)">
<path d="M48.9996 29.1427C48.7125 29.3834 48.4464 29.6751 48.1248 29.8568C42.8746 32.8322 37.6109 35.7879 32.3577 38.7692C31.8055 39.0815 31.3529 39.0756 30.8016 38.7633C25.506 35.7588 20.2038 32.769 14.8948 29.794C14.3703 29.4993 14.1186 29.123 14.1579 28.5022C14.1933 27.9512 14.1655 27.3962 14.1655 26.7813H13.6239C11.1681 26.7813 8.71174 26.7813 6.25472 26.7813C5.6384 26.7813 5.22304 26.4394 5.17136 25.909C5.1082 25.2695 5.52642 24.8196 6.2241 24.8167C8.10562 24.8078 9.98714 24.8167 11.8706 24.8167H14.1368V19.7127H13.6373C12.0422 19.7127 10.4472 19.7127 8.85211 19.7127C8.14869 19.7127 7.73142 19.3463 7.72377 18.7363C7.71611 18.1263 8.1305 17.7481 8.83297 17.7461C10.5853 17.7402 12.3376 17.7461 14.1273 17.7461V14.2118H3.46976C3.32651 14.2169 3.18309 14.2146 3.04006 14.2049C2.79944 14.1834 2.57566 14.0693 2.4136 13.8854C2.25154 13.7016 2.1632 13.4617 2.16629 13.2138C2.16037 12.9638 2.25139 12.7215 2.41934 12.5403C2.5873 12.3591 2.81846 12.2537 3.06207 12.2472C3.54058 12.2227 4.0191 12.2345 4.49761 12.2345H14.1636C14.1636 11.597 14.1828 10.9978 14.1579 10.3995C14.1349 9.85634 14.3665 9.51548 14.8202 9.26303C17.8827 7.54795 20.9391 5.82599 23.9895 4.09715C26.2768 2.8074 28.5717 1.53042 30.8504 0.222983C31.35 -0.0638467 31.7787 -0.0825104 32.2802 0.201372C37.6185 3.22291 42.9588 6.23986 48.3009 9.25223C48.567 9.40252 48.767 9.67265 48.9976 9.88777V16.8621C48.963 16.8918 48.931 16.9247 48.9019 16.9603C48.5622 17.4514 48.2263 17.6037 47.7755 17.4622C47.3066 17.3149 47.0884 16.9711 47.0865 16.368C47.0865 15.6646 47.0865 14.9613 47.0865 14.257V11.8995C45.6021 12.7384 44.1933 13.5242 42.7999 14.3326C42.6832 14.4014 42.6152 14.6548 42.6085 14.8238C42.5942 16.3778 42.5951 17.9328 42.6028 19.4877C42.6028 19.9337 42.4717 20.2863 42.0774 20.5093C40.9203 21.1616 39.7709 21.8305 38.6024 22.4631C37.8951 22.8462 37.185 22.4061 37.1467 21.5849C37.1247 21.1115 37.1419 20.636 37.1419 20.1616C37.1419 19.304 37.1419 18.4465 37.1419 17.5231C36.9151 17.641 36.7591 17.7196 36.6098 17.8021C35.3954 18.4897 34.1885 19.1773 32.9635 19.8433C32.6391 20.0191 32.5214 20.2127 32.5224 20.5967C32.5364 25.67 32.5396 30.7428 32.5319 35.8154V36.3478C32.6879 36.282 32.7894 36.2496 32.8812 36.1985C37.5177 33.5902 42.1495 30.9763 46.7764 28.3569C46.8595 28.2978 46.9292 28.221 46.9806 28.1316C47.032 28.0422 47.0639 27.9424 47.074 27.8392C47.1008 26.7105 47.0922 25.5799 47.0855 24.4522C47.0855 23.9689 47.2874 23.6222 47.7229 23.4699C48.1803 23.3059 48.567 23.4562 48.8541 23.8629C48.8981 23.9267 48.9498 23.9827 48.9996 24.0426V29.1427ZM16.1083 11.9192C16.0892 12.041 16.0796 12.0734 16.0796 12.1058C16.0796 17.3591 16.0831 22.6127 16.0901 27.8667C16.0901 28.0366 16.2595 28.2783 16.4155 28.3657C21.0093 30.9734 25.6113 33.5712 30.2217 36.1592C30.3365 36.224 30.4619 36.2712 30.6265 36.3458V35.7349C30.6265 30.7104 30.6207 25.686 30.636 20.6616C30.636 20.248 30.5269 20.026 30.1671 19.8256C26.5042 17.7785 22.8471 15.7203 19.1957 13.6509C18.1832 13.0792 17.1658 12.5125 16.1083 11.9192ZM36.0844 15.8385C36.0197 15.7855 35.9523 15.736 35.8825 15.6902C31.2403 13.0707 26.5948 10.4565 21.9462 7.84754C21.8508 7.80706 21.7482 7.78755 21.645 7.79026C21.5418 7.79296 21.4404 7.81783 21.3471 7.86326C20.0819 8.55087 18.832 9.26696 17.5783 9.97618C17.4462 10.0508 17.3199 10.1353 17.1534 10.2384C18.5889 11.0518 19.9852 11.8396 21.3787 12.6244C24.6556 14.4712 27.934 16.3146 31.2141 18.1548C31.3806 18.253 31.661 18.31 31.8075 18.2304C33.2277 17.4613 34.6307 16.6577 36.0844 15.8385ZM46.0146 10.2443C45.9007 10.1667 45.8375 10.1166 45.7686 10.0773C41.1366 7.46379 36.5033 4.85548 31.8687 2.2524C31.7156 2.16596 31.4342 2.18855 31.2706 2.27598C30.2551 2.82115 29.2608 3.39874 28.253 3.96651C27.9315 4.14921 27.6118 4.33388 27.2434 4.54409C28.1047 5.03524 28.9 5.4812 29.6943 5.92815C33.5595 8.10687 37.4262 10.282 41.2945 12.4535C41.4629 12.5517 41.7424 12.6254 41.8869 12.5468C43.2488 11.8121 44.5972 11.041 46.0146 10.2443ZM39.6111 13.8464C39.546 13.7698 39.5383 13.7482 39.525 13.7482C34.8278 11.0953 30.1298 8.44314 25.4308 5.79161C25.3446 5.74249 25.2049 5.69338 25.1322 5.73463C24.6632 5.97923 24.2058 6.24641 23.7186 6.52047C23.7586 6.56414 23.8018 6.60454 23.8478 6.64129C28.5315 9.28497 33.2168 11.925 37.9037 14.5615C37.9624 14.5925 38.0266 14.6108 38.0925 14.6154C38.1583 14.6199 38.2243 14.6106 38.2866 14.588C38.7268 14.3641 39.1479 14.1136 39.6111 13.8464ZM40.6801 15.5163C40.1958 15.7874 39.7805 15.9868 39.4044 16.2462C39.3226 16.3069 39.2536 16.3839 39.2016 16.4727C39.1497 16.5615 39.1158 16.6602 39.1019 16.7628C39.0684 17.5123 39.0876 18.2648 39.0876 19.0152V19.9307C39.6006 19.6469 40.0293 19.4308 40.4322 19.1724C40.4978 19.1244 40.5529 19.0628 40.5938 18.9916C40.6347 18.9203 40.6605 18.841 40.6696 18.7589C40.6897 17.7166 40.6801 16.6725 40.6801 15.5183V15.5163Z" fill="black"/>
<path d="M0 25.41C0.340703 24.9041 0.816348 24.7469 1.39631 24.8049C1.7284 24.8373 2.06623 24.7999 2.40023 24.8225C2.64025 24.84 2.86489 24.9503 3.0289 25.131C3.19291 25.3117 3.2841 25.5495 3.2841 25.7965C3.2841 26.0435 3.19291 26.2813 3.0289 26.462C2.86489 26.6427 2.64025 26.7529 2.40023 26.7704C1.89205 26.7979 1.36281 26.8588 0.877597 26.7478C0.555078 26.6732 0.287109 26.3235 0 26.0976V25.41Z" fill="black"/>
<path d="M49.0004 20.7932C48.7449 21.1586 48.4616 21.4808 47.9687 21.4435C47.7621 21.4223 47.5671 21.3351 47.4114 21.1941C47.2557 21.0531 47.147 20.8654 47.1007 20.6576C47.0612 20.4481 47.0882 20.2312 47.1778 20.0386C47.2674 19.8461 47.4148 19.6881 47.5983 19.5879C47.7892 19.484 48.0089 19.45 48.2211 19.4914C48.4334 19.5328 48.6255 19.6473 48.7659 19.8158C48.8482 19.914 48.9229 20.0123 49.0004 20.1105V20.7932Z" fill="black"/>
<path d="M4.85752 17.7481C5.11255 17.7507 5.35624 17.8566 5.5355 18.0428C5.71477 18.229 5.81507 18.4804 5.81455 18.7421C5.8017 19.0045 5.69039 19.2516 5.50395 19.4317C5.3175 19.6117 5.07041 19.7106 4.81445 19.7077C4.56682 19.6983 4.33239 19.5907 4.16051 19.4075C3.98862 19.2243 3.89266 18.9798 3.89283 18.7254C3.88988 18.5952 3.9129 18.4657 3.9605 18.3449C4.0081 18.2241 4.07926 18.1145 4.16961 18.023C4.25995 17.9315 4.36758 17.8599 4.48588 17.8126C4.60418 17.7653 4.73065 17.7433 4.85752 17.7481Z" fill="black"/>
</g>
</mask>
<g mask="url(#mask0_320_4961)">
<rect x="13" y="-1" width="38" height="41" fill="#151515"/>
<rect x="-7" y="5" width="21" height="26" fill="#FFD600"/>
</g>
<defs>
<clipPath id="clip0_320_4961">
<rect width="49" height="39" fill="white"/>
</clipPath>
</defs>
</svg>
