<svg width="54" height="54" viewBox="0 0 54 54" fill="none" xmlns="http://www.w3.org/2000/svg">
<g clip-path="url(#clip0_320_4979)">
<path d="M48.5376 7.19935C49.8018 5.82422 49.8454 4.02902 48.6235 2.62615C48.0905 2.01557 47.5168 1.44183 46.9062 0.908883C45.4228 -0.384348 43.506 -0.290561 42.078 1.12948C40.6501 2.54953 39.2472 3.94447 37.8377 5.35659C36.8523 6.34468 35.8699 7.33585 34.8906 8.3301C34.8139 8.40783 34.7328 8.48105 34.6476 8.54938L31.5182 11.6814L31.4403 11.7607L30.2963 12.9046L30.1642 13.0367C28.587 14.61 27.0097 16.1833 25.4497 17.7737C25.1377 18.1006 24.8999 18.4907 24.7522 18.9177C24.0204 21.018 23.3586 23.1448 22.6175 25.2412C22.2212 26.3482 22.9821 27.006 23.8605 27.0034C29.2765 26.9822 34.6925 26.9915 40.1006 26.9902H40.4519V24.7141H30.9806C31.509 24.2003 31.9911 23.7485 32.4574 23.2835C36.3375 19.4087 40.2124 15.5294 44.082 11.6457C44.1203 11.6061 44.1599 11.5704 44.1982 11.5374L47.3104 8.43578C47.7226 8.02892 48.1453 7.62735 48.5376 7.19935ZM25.4312 24.0589L26.4074 21.1039L28.3888 23.0748L25.4312 24.0589ZM30.6464 21.7776L27.7323 18.8715L39.9962 6.60755L42.9023 9.51369C38.8192 13.5942 34.711 17.7037 30.6464 21.7776ZM46.8613 5.68419C46.148 6.43318 45.4082 7.15443 44.7147 7.84662L41.6765 4.78725C42.3753 4.08318 43.1124 3.30908 43.8851 2.57066C44.0724 2.37826 44.3278 2.26723 44.5962 2.26155C44.8646 2.25586 45.1245 2.35598 45.3197 2.54028C45.8942 3.05573 46.4401 3.6021 46.9551 4.17697C47.3778 4.64855 47.3382 5.17826 46.8626 5.67759L46.8613 5.68419Z" fill="#FFD600"/>
<path d="M48.1572 7.59822L48.218 7.53613L48.1572 7.59822Z" fill="black"/>
<path d="M53.9976 13.5994C53.9976 11.4225 52.74 9.74746 50.6621 9.15698C50.2209 9.04379 49.7676 8.98392 49.3121 8.97865C48.5195 8.95091 47.7269 8.97072 46.8022 8.97072C46.9832 8.77786 47.0889 8.66029 47.1985 8.54801L47.3068 8.4397L44.2039 11.5374C44.4384 11.3336 44.743 11.2289 45.0533 11.2454C46.3544 11.2679 47.6582 11.3115 48.9541 11.2454C50.818 11.1437 51.7612 12.2309 51.7532 14.0195C51.7149 22.1738 51.7361 30.3282 51.7361 38.4839V43.3094C50.0664 42.4547 48.3451 42.748 46.6635 42.7374C42.2 42.707 37.7351 42.7229 33.2715 42.7374C33.1087 42.7449 32.9461 42.7164 32.7955 42.6541C32.6448 42.5918 32.5097 42.4971 32.3997 42.3768C24.4739 34.4413 16.548 26.5106 8.62219 18.5848C7.95378 17.9163 7.64862 17.8556 6.74772 18.236V16.0194C6.74772 14.8781 6.7398 13.7355 6.74772 12.5928C6.75697 11.688 7.17572 11.2573 8.06869 11.2573C15.8888 11.252 23.709 11.252 31.5292 11.2573C31.6163 11.2573 31.7022 11.2679 31.9004 11.2824C31.7022 11.4925 31.578 11.6325 31.4446 11.7646L31.5226 11.6853L34.6519 8.5533C34.2865 8.85451 33.8226 9.0098 33.3495 8.98922C24.9498 8.96456 16.5498 8.95928 8.14927 8.97337C6.3369 8.97337 5.04895 9.89805 4.61567 11.5334C4.52258 11.9432 4.48088 12.363 4.49151 12.783C4.48094 15.2083 4.4915 17.6337 4.47037 20.059C4.4531 20.3782 4.32673 20.6817 4.11239 20.9189C3.04372 22.0365 1.93279 23.1117 0.848273 24.2213C0.543128 24.5318 0.280247 24.8818 -0.00244141 25.2147V25.8475C0.239296 26.146 0.45858 26.4657 0.726738 26.7391C1.83503 27.8659 2.94862 28.9848 4.08333 30.0891C4.22279 30.218 4.33196 30.3761 4.403 30.5522C4.47403 30.7283 4.50516 30.918 4.49415 31.1076C4.47962 34.4972 4.49414 37.8881 4.48357 41.279C4.48357 42.7982 5.03179 44.0095 6.44787 44.6488C7.0299 44.8887 7.65457 45.0078 8.28401 44.9989C11.6736 45.0306 15.0646 45.02 18.4555 45.0068C18.6279 44.998 18.8002 45.0272 18.96 45.0925C19.1198 45.1578 19.2633 45.2576 19.3802 45.3846C21.9666 47.9913 24.5619 50.5893 27.166 53.1784C27.4711 53.4822 27.8265 53.7358 28.162 54.0119H28.6904C29.0074 53.7702 29.3509 53.5588 29.6362 53.2801C31.5102 51.4307 33.3763 49.569 35.2345 47.695C36.2688 46.662 36.2767 46.2974 35.286 45.2472C35.239 45.19 35.1949 45.1305 35.1539 45.0689H44.9938V45.6475C44.9938 47.193 44.9938 48.7399 44.9938 50.2868C44.9938 51.3435 45.4126 51.7689 46.4561 51.7636C47.6318 51.7636 48.8114 51.7636 49.9831 51.6857C52.1376 51.5324 53.8615 49.7042 53.991 47.5101C53.9989 47.3872 54.0002 47.2644 54.0002 47.1415C53.9993 35.9564 53.9985 24.7757 53.9976 13.5994ZM16.1346 42.7215H8.22854C7.17176 42.7215 6.75036 42.3147 6.74904 41.2685C6.74904 38.6151 6.74904 35.9617 6.74904 33.3083V32.8882L16.5599 42.6991C16.4304 42.7057 16.2825 42.7202 16.1346 42.7215ZM28.4011 51.1137L2.84029 25.5529L7.55616 20.8357L10.5231 23.8026L8.19287 26.0482L9.8388 27.6929L12.0607 25.4208L15.0487 28.3943L12.671 30.6201L14.3394 32.1855L16.5731 29.8962L19.5506 32.8499L17.2389 35.0956L18.8676 36.7309L21.1133 34.4206L24.0459 37.3531L21.7024 39.5988L23.3854 41.172C24.0961 40.4561 24.8807 39.6622 25.631 38.9026L28.5649 41.8352C27.8001 42.5472 26.9797 43.3081 26.17 44.0689L27.9308 45.74L30.1884 43.4177L33.1447 46.3714L28.4011 51.1137ZM51.7017 47.5708C51.6363 48.0616 51.4055 48.5154 51.0474 48.8574C50.6894 49.1994 50.2254 49.4091 49.7321 49.4519C48.9316 49.5021 48.1259 49.4625 47.2699 49.4625V44.9632C48.2527 45.0134 49.2408 44.954 50.176 45.1429C51.2618 45.3635 51.8219 46.3952 51.6964 47.5708H51.7017Z" fill="black"/>
<path d="M28.1567 15.0525C28.8278 14.3797 29.4993 13.7086 30.1712 13.0393L30.3033 12.9072C29.5856 13.625 28.8701 14.34 28.1567 15.0525Z" fill="black"/>
<path d="M34.7681 8.45562C34.8117 8.41731 34.8539 8.37636 34.9002 8.33276C34.8539 8.37636 34.8117 8.41599 34.7681 8.45562Z" fill="black"/>
<path d="M27.6005 15.6099C26.8827 16.3302 26.1681 17.0524 25.4565 17.7763C26.1672 17.0515 26.8819 16.3294 27.6005 15.6099Z" fill="black"/>
</g>
<defs>
<clipPath id="clip0_320_4979">
<rect width="54" height="54" fill="white"/>
</clipPath>
</defs>
</svg>
