<svg width="45" height="54" viewBox="0 0 45 54" fill="none" xmlns="http://www.w3.org/2000/svg">
<g clip-path="url(#clip0_320_4963)">
<path d="M22.1754 54C20.3365 53.0772 18.4829 52.1925 16.6627 51.2394C13.331 49.4965 10.1817 47.4794 7.36498 44.993C3.89642 41.9238 1.51028 38.2324 0.625034 33.6722C0.198475 31.3565 -0.00673765 29.0066 0.012071 26.6533C0.00402335 21.4523 0.0120715 16.2514 0 11.0505C0 10.3584 0.268253 9.94834 0.897314 9.66225C7.95425 6.48237 15.0067 3.29282 22.0547 0.0936024C22.0987 0.0674593 22.1393 0.0360162 22.1754 0H22.8179C25.5121 1.23047 28.2058 2.46094 30.8991 3.69141C35.2475 5.66895 39.5946 7.64649 43.9552 9.59107C44.7116 9.92857 45.004 10.39 45 11.2113C44.9705 16.3239 45 21.4378 44.9812 26.5504C44.9812 29.3467 44.7975 32.1297 44.0987 34.8561C43.1799 38.4368 41.282 41.4637 38.6356 44.0517C35.8283 46.7965 32.573 48.9428 29.1286 50.8148C27.0604 51.9394 24.9237 52.9453 22.8246 54.004L22.1754 54ZM2.14739 20.7233C2.14739 22.3923 2.09374 24.064 2.1608 25.7331C2.24933 27.9242 2.36468 30.1192 2.59404 32.2985C2.8073 34.3354 3.47794 36.2536 4.4611 38.0755C6.21147 41.3068 8.8766 43.6918 11.8301 45.8038C15.0572 48.1109 18.5687 49.9381 22.1714 51.6045C22.2881 51.6469 22.4123 51.6661 22.5366 51.6609C22.661 51.6557 22.783 51.6262 22.8957 51.5742C24.7279 50.6738 26.5735 49.7971 28.3601 48.8057C31.4638 47.0918 34.4039 45.1485 36.9604 42.6832C39.5168 40.2179 41.3262 37.3096 42.1283 33.8238C42.6997 31.3374 42.799 28.8141 42.8312 26.2881C42.8848 21.5262 42.8419 16.7643 42.8566 12.0023C42.8566 11.6068 42.7587 11.3919 42.3657 11.2113C35.873 8.28896 29.387 5.35298 22.9078 2.40337C22.7771 2.33678 22.6317 2.30291 22.4846 2.30475C22.3374 2.30659 22.193 2.34408 22.0641 2.41392C15.5812 5.35913 9.09523 8.296 2.60611 11.2245C2.23323 11.3919 2.13666 11.5884 2.138 11.9707C2.15544 14.8896 2.14739 17.8058 2.14739 20.7233Z" fill="black"/>
<path d="M21.4283 45.5427C21.4283 44.2164 21.4283 42.9165 21.4283 41.6166C21.4283 40.8256 21.8682 40.3141 22.5188 40.3325C23.1693 40.351 23.5609 40.8374 23.5636 41.61C23.5636 42.8743 23.5636 44.1399 23.5636 45.4056C23.5688 45.45 23.5769 45.494 23.5878 45.5374C23.668 45.5225 23.7467 45.5 23.8225 45.4702C26.7532 43.9672 29.59 42.3246 32.1223 40.2073C34.5259 38.1955 36.3755 35.8264 37.1159 32.7322C37.6068 30.6808 37.6605 28.5886 37.686 26.5029C37.7329 22.6718 37.6994 18.8393 37.6994 15.0082C37.6994 14.9027 37.6873 14.7985 37.6806 14.6786C37.0006 14.3688 36.3192 14.0655 35.6459 13.7478C35.4361 13.6635 35.2588 13.516 35.1395 13.3265C35.0202 13.137 34.9651 12.9153 34.9819 12.6931C35.0061 12.2528 35.2408 11.9021 35.6754 11.7887C35.9647 11.7159 36.2696 11.7311 36.5499 11.8322C37.4378 12.1921 38.3056 12.6021 39.1748 13.0082C39.3845 13.0933 39.5619 13.2407 39.6822 13.4298C39.8024 13.619 39.8595 13.8403 39.8454 14.0629C39.8052 19.2994 39.8387 24.5386 39.7113 29.7725C39.5906 34.6122 37.4553 38.5409 33.7305 41.6641C30.5007 44.372 26.843 46.4102 23.0553 48.2269C22.8805 48.299 22.6929 48.3361 22.5033 48.3361C22.3138 48.3361 22.1262 48.299 21.9514 48.2269C18.1475 46.397 14.4603 44.3707 11.2372 41.6351C8.21533 39.0656 6.08537 35.9477 5.53411 31.9807C5.29883 30.1881 5.17654 28.3829 5.16794 26.5754C5.11563 22.4819 5.16794 18.3858 5.14111 14.291C5.14111 13.5949 5.40937 13.1862 6.04111 12.9027C11.2703 10.5411 16.4951 8.17378 21.7153 5.80073C21.9513 5.67845 22.2135 5.61344 22.4802 5.61115C22.747 5.60885 23.0103 5.66934 23.2484 5.78755C24.5012 6.37553 25.7727 6.92793 27.0308 7.50141C27.6653 7.79145 27.9416 8.26474 27.8115 8.78154C27.6344 9.48554 26.9517 9.7914 26.2019 9.46577C25.094 8.98413 23.9942 8.48579 22.9024 7.97075C22.7819 7.90378 22.6462 7.86782 22.5079 7.86621C22.3695 7.86459 22.233 7.89738 22.111 7.96152C17.3271 10.1377 12.5383 12.3051 7.74454 14.4637C7.41861 14.6113 7.27509 14.7748 7.27777 15.1584C7.29521 18.9013 7.24961 22.6454 7.30192 26.3882C7.33411 28.7019 7.37301 31.0223 8.02487 33.2833C8.65393 35.4678 9.85169 37.3056 11.4518 38.9074C13.8433 41.2976 16.6976 43.0549 19.6484 44.6765C20.1769 44.9666 20.7214 45.2395 21.258 45.5176C21.3135 45.5325 21.3707 45.5409 21.4283 45.5427Z" fill="black"/>
<path d="M31.484 23.7371V24.3962C31.484 27.2597 31.484 30.1228 31.484 32.9854C31.484 34.04 31.1165 34.4013 30.0354 34.4013H14.946C13.873 34.4013 13.5109 34.0348 13.5109 32.9722C13.5109 30.1087 13.5109 27.2452 13.5109 24.3817V23.7582C13.1715 23.7582 12.8912 23.7582 12.6109 23.7582C12.0958 23.7661 11.6921 23.5696 11.5083 23.0871C11.3246 22.6046 11.4788 22.1643 11.8879 21.8162C12.918 20.9496 13.9463 20.0817 14.9729 19.2125C17.1422 17.3852 19.3106 15.5584 21.4781 13.732C22.2949 13.0425 22.6973 13.0439 23.5222 13.7413C26.6653 16.3912 29.8056 19.0437 32.9433 21.6989C33.2223 21.933 33.4244 22.2431 33.5241 22.5901C33.665 23.1807 33.2116 23.6857 32.5852 23.7384C32.2486 23.7608 31.9106 23.7371 31.484 23.7371ZM15.6663 32.2458H29.3273V31.6406C29.3273 28.8286 29.3165 26.0178 29.3393 23.2031C29.3393 22.7219 29.4976 22.242 29.6076 21.6514L22.4988 15.6687L15.398 21.6501C15.5013 22.2447 15.6542 22.7246 15.6583 23.2071C15.6811 26.0178 15.669 28.8299 15.669 31.6446L15.6663 32.2458Z" fill="#FFD600"/>
<path d="M31.5495 9.69527C31.8375 9.68711 32.1169 9.79169 32.3264 9.98601C32.5359 10.1803 32.6584 10.4485 32.6668 10.7315C32.6724 11.0055 32.5692 11.2709 32.3792 11.4714C32.1892 11.672 31.9272 11.792 31.6488 11.806C31.5016 11.8111 31.3548 11.7872 31.2172 11.7357C31.0795 11.6842 30.9537 11.6062 30.8472 11.5061C30.7408 11.4061 30.6557 11.2862 30.5971 11.1534C30.5385 11.0206 30.5075 10.8776 30.506 10.7328C30.5038 10.597 30.5293 10.4621 30.5808 10.336C30.6323 10.21 30.7089 10.0953 30.8061 9.99869C30.9033 9.90208 31.0191 9.82548 31.1467 9.77338C31.2744 9.72129 31.4113 9.69473 31.5495 9.69527Z" fill="black"/>
<path d="M22.4931 38.6992C22.2137 38.6921 21.9478 38.5798 21.7503 38.3855C21.5528 38.1911 21.4389 37.9296 21.4321 37.655C21.4321 37.5146 21.4606 37.3756 21.5159 37.2462C21.5713 37.1167 21.6524 36.9994 21.7544 36.9012C21.8565 36.803 21.9775 36.7258 22.1103 36.6741C22.2431 36.6224 22.3851 36.5974 22.528 36.6003C22.8071 36.6103 23.0714 36.7269 23.2645 36.9253C23.4576 37.1237 23.5644 37.3883 23.5621 37.6629C23.5535 37.9376 23.4377 38.1984 23.2386 38.3914C23.0396 38.5843 22.7726 38.6945 22.4931 38.6992Z" fill="black"/>
<path d="M21.7825 27.087C22.9896 25.8886 24.1391 24.7588 25.2846 23.6302C26.0169 22.9091 26.6178 22.8063 27.1262 23.3283C27.4977 23.712 27.6627 24.3487 26.8069 25.149C25.4388 26.4318 24.1244 27.7738 22.7911 29.0869C22.0695 29.7962 21.5424 29.8002 20.8288 29.1054C20.3218 28.6123 19.8122 28.1206 19.3172 27.617C18.7968 27.0896 18.7566 26.4753 19.1925 26.0257C19.6284 25.5761 20.295 25.6051 20.8476 26.1259C21.1548 26.4172 21.4378 26.7323 21.7825 27.087Z" fill="#FFD600"/>
</g>
<defs>
<clipPath id="clip0_320_4963">
<rect width="45" height="54" fill="white"/>
</clipPath>
</defs>
</svg>
