<svg width="55" height="44" viewBox="0 0 55 44" fill="none" xmlns="http://www.w3.org/2000/svg">
<g clip-path="url(#clip0_320_4970)">
<path d="M25.6682 41.7083V41.1943C25.6682 38.6065 25.6682 36.0187 25.6682 33.4309C25.6682 32.3761 25.3063 32.008 24.2609 32.0054C22.2928 32.0054 20.3239 32.0054 18.3541 32.0054C17.3369 32.0054 16.979 32.3761 16.979 33.4041C16.979 35.9919 16.979 38.5798 16.979 41.1676V41.703H19.1601V34.1939H23.4657V41.703L25.6682 41.7083Z" fill="#FFD600"/>
<path d="M12.4713 41.7084C12.4606 41.5652 12.4471 41.4286 12.4471 41.2961C12.4471 37.816 12.4471 34.3358 12.4592 30.8556C12.4634 30.7309 12.4926 30.6083 12.5451 30.495C12.5975 30.3817 12.6722 30.28 12.7647 30.1957C15.5189 28.1531 18.2893 26.132 21.0583 24.1068C21.1418 24.0452 21.2359 23.9957 21.3436 23.9301L27.9217 28.7488C28.5851 29.2347 29.2578 29.7085 29.905 30.2131C30.0635 30.3408 30.165 30.5255 30.1875 30.7271C30.2023 34.3478 30.197 37.9685 30.1956 41.5893C30.1927 41.6298 30.1845 41.6699 30.1714 41.7084H32.413V32.071C32.5247 32.0871 32.6377 32.1085 32.7534 32.1192C33.406 32.1741 33.9361 31.7578 33.9455 31.1046C33.9697 29.5358 33.9805 27.9644 33.9321 26.3957C33.9124 26.224 33.8588 26.0578 33.7746 25.9067C33.6903 25.7556 33.577 25.6224 33.441 25.5149C29.6655 22.7174 25.877 19.9355 22.0755 17.1692C21.5225 16.7676 21.0906 16.7877 20.5053 17.2134C19.1477 18.2012 17.7941 19.1971 16.4392 20.1889C16.271 20.3107 16.1015 20.4298 15.9158 20.5637C15.5727 19.0043 15.5229 18.9655 13.9124 18.9655C13.1966 18.9655 12.4808 18.9655 11.7596 18.9655C10.8056 18.9655 10.4141 19.3523 10.4141 20.288C10.4141 21.5729 10.4033 22.8579 10.4141 24.1416C10.4281 24.2799 10.4037 24.4193 10.3437 24.5449C10.2837 24.6704 10.1903 24.7772 10.0737 24.8537C8.49944 26.0048 8.67704 25.6327 8.66897 27.6499C8.66897 28.6484 8.66897 29.6483 8.66897 30.6468C8.66897 31.822 9.07262 32.1915 10.2284 32.0857V41.703L12.4713 41.7084ZM12.583 21.1634H13.5814C13.7967 22.1365 13.7038 22.3091 12.583 22.9583V21.1634ZM10.8514 27.16C10.8739 27.0254 10.9482 26.9049 11.0586 26.824C14.4672 24.3147 17.8874 21.8054 21.3194 19.2961L27.4279 23.7681C28.7398 24.7292 30.0422 25.7023 31.3675 26.646C31.6932 26.8775 31.8519 27.1158 31.8143 27.5227C31.7766 27.9296 31.8048 28.3713 31.8048 28.9014C31.5478 28.7193 31.3635 28.5935 31.1832 28.4623L22.2733 21.937C21.4781 21.3548 21.1619 21.3561 20.3573 21.9451L11.5322 28.4048C11.3358 28.548 11.1366 28.6872 10.842 28.8974C10.842 28.2455 10.8298 27.7021 10.8514 27.16Z" fill="#FFD600"/>
<path d="M54.7683 10.6347C53.338 7.41149 51.8997 4.19233 50.4883 0.959794C50.1923 0.2825 49.7617 -0.00528083 49.0082 7.32712e-05C44.8722 0.0241667 40.7374 0.0107797 36.6014 0.0107797H4.80183C3.98511 0.0107797 3.66488 0.196837 3.44018 0.866099C2.31176 4.24186 1.19051 7.6203 0.076434 11.0014C-0.185938 11.7978 0.260767 12.4336 1.09767 12.5059C1.32909 12.526 1.56321 12.5126 1.79598 12.5126H4.25287V13.2622C4.25287 22.9344 4.25287 32.607 4.25287 42.2801C4.24974 42.5484 4.26367 42.8166 4.29458 43.0832C4.31037 43.2805 4.38994 43.4675 4.52138 43.6161C4.65283 43.7647 4.8291 43.867 5.02384 43.9077C5.30156 43.9725 5.5863 44.0026 5.8715 43.9974C19.8907 43.9974 33.9095 43.9974 47.9278 43.9974C49.2854 43.9974 49.611 43.6735 49.611 42.3296V12.5153C50.9565 12.5153 52.2065 12.4925 53.4578 12.5233C54.1198 12.5407 54.6432 12.364 54.9984 11.7885V11.0389C54.9144 10.9084 54.8376 10.7734 54.7683 10.6347ZM3.11726 10.3281C2.95984 10.3281 2.80242 10.3107 2.57906 10.2987L5.27948 2.16581H35.6878C35.638 2.33981 35.6057 2.48973 35.5532 2.63161C34.6571 5.05167 33.7503 7.46771 32.8689 9.89177C32.7425 10.2398 32.5689 10.3375 32.2097 10.3362C22.5158 10.3272 12.8183 10.3246 3.11726 10.3281ZM36.1695 41.7728H32.4021V41.7085H30.1618C30.1618 41.7326 30.1484 41.7594 30.1416 41.7915H25.6584V41.7085H23.4585V41.7821H19.1529V41.7085H16.9759V41.7808H12.4752C12.4752 41.7554 12.4752 41.7326 12.4752 41.7085H10.2363V41.7862H6.4689V12.5153H32.9268C34.0301 12.5153 34.2508 12.3627 34.6302 11.3508C35.1227 10.039 35.6124 8.72592 36.1735 7.42621L36.1695 41.7728ZM47.3869 41.7808H43.5065V41.153C43.5065 33.9803 43.5065 26.8072 43.5065 19.6336C43.5065 18.801 43.1539 18.3472 42.5 18.3151C42.2288 18.2943 41.9601 18.3789 41.7503 18.5512C41.5406 18.7234 41.4061 18.9699 41.3752 19.2387C41.3552 19.4339 41.3494 19.6303 41.3577 19.8263V41.7781H38.3976V5.92572C38.5416 6.2028 38.6223 6.3487 38.6936 6.49727C39.5157 8.1972 40.3499 9.89177 41.1492 11.6024C41.4519 12.2503 41.9053 12.5394 42.6198 12.5287C44.1927 12.5059 45.7669 12.5287 47.3829 12.5287L47.3869 41.7808ZM51.6481 10.3255C48.9275 10.3255 46.2069 10.3174 43.4876 10.3348C43.084 10.3348 42.8929 10.2103 42.722 9.85028C41.577 7.44094 40.4064 5.03159 39.2453 2.62224C39.178 2.48839 39.1269 2.33714 39.0475 2.14171H42.5915C44.4752 2.14171 46.3495 2.13368 48.2292 2.15376C48.4095 2.15376 48.6853 2.28761 48.7526 2.4402C49.8949 4.97269 51.0117 7.51589 52.1338 10.0564C52.1631 10.1442 52.1873 10.2336 52.2065 10.3241L51.6481 10.3255Z" fill="black"/>
</g>
<defs>
<clipPath id="clip0_320_4970">
<rect width="55" height="44" fill="white"/>
</clipPath>
</defs>
</svg>
