<svg width="36" height="31" viewBox="0 0 36 31" fill="none" xmlns="http://www.w3.org/2000/svg">
<g clip-path="url(#clip0_320_4925)">
<path d="M36.0001 6.54181V17.879C35.8511 18.0566 35.7142 18.2464 35.552 18.4109C34.4964 19.4706 33.4373 20.5277 32.3748 21.5823C32.2888 21.6774 32.1919 21.7621 32.0861 21.8347C31.9682 21.9138 31.8283 21.9537 31.6864 21.9486C31.5444 21.9436 31.4077 21.8939 31.2958 21.8067C31.1758 21.7302 31.0849 21.6157 31.0379 21.4816C30.9908 21.3476 30.9902 21.2016 31.0361 21.0671C31.1034 20.8941 31.2099 20.7389 31.3473 20.6137C32.3589 19.5918 33.3826 18.582 34.3895 17.5555C34.5097 17.4241 34.5795 17.2545 34.5864 17.0768C34.5986 14.3365 34.5958 11.5961 34.5939 8.85487C34.5939 8.76137 34.5808 8.66133 34.5742 8.5641L34.4805 8.50707C34.4134 8.61592 34.3375 8.71911 34.2536 8.8156C31.0336 12.0256 27.8117 15.2356 24.588 18.4455C24.182 18.8494 23.6233 19.1935 23.4217 19.6834C23.2201 20.1733 23.358 20.8287 23.3533 21.4103C23.3533 21.9394 23.3533 22.4696 23.3533 23.0801C23.5089 22.9333 23.6017 22.8501 23.6898 22.7622L29.7058 16.7785C29.7853 16.6926 29.8702 16.6118 29.9598 16.5364C30.0935 16.4326 30.2602 16.3804 30.4293 16.3894C30.5984 16.3984 30.7586 16.468 30.8804 16.5854C31.0023 16.7027 31.0775 16.86 31.0923 17.0283C31.1071 17.1966 31.0605 17.3645 30.9611 17.5012C30.8744 17.6094 30.7804 17.7116 30.6798 17.807C28.3192 20.1574 25.957 22.5063 23.5933 24.8537C23.5126 24.9266 23.4492 25.0166 23.4077 25.117C23.3662 25.2174 23.3476 25.3258 23.3533 25.4343C23.3664 26.3561 23.358 27.277 23.3598 28.198C23.3598 28.2915 23.373 28.3934 23.3805 28.4915L23.5023 28.5775C23.5573 28.4613 23.6256 28.3518 23.7058 28.2513C24.6939 27.254 25.687 26.2629 26.6851 25.2781C26.8295 25.1293 27.0105 25.0209 27.2101 24.964C27.5242 24.8929 27.7895 25.0378 27.9301 25.338C28.0905 25.6736 27.9958 25.9644 27.7361 26.2224C26.2614 27.6903 24.7848 29.1563 23.3214 30.6354C23.206 30.7577 23.0656 30.8538 22.9096 30.9172C22.7537 30.9806 22.5859 31.0098 22.4176 31.0028C15.2589 30.9972 8.10015 30.9972 0.941406 31.0028C0.512031 31.0028 0.186719 30.885 0.00390625 30.4792V19.1393C0.122969 18.9981 0.233595 18.8485 0.363907 18.7185C6.50828 12.6003 12.6527 6.48166 18.797 0.362753C18.9077 0.243942 19.0426 0.150108 19.1927 0.0875432C19.3427 0.0249784 19.5045 -0.00487231 19.667 -6.64714e-06C23.1808 0.00622633 26.6948 0.00622633 30.2092 -6.64714e-06C30.8964 -6.64714e-06 31.1467 0.245884 31.1467 0.924655C31.1467 2.51032 31.1467 4.09599 31.1467 5.68166V6.06499C32.4695 6.06499 33.7342 6.07621 34.998 6.05844C35.4245 6.05657 35.7648 6.17064 36.0001 6.54181ZM2.46109 18.6391C2.61391 18.6475 2.71328 18.6578 2.81266 18.6587C3.73797 18.6587 4.66328 18.6709 5.58859 18.6484C5.78982 18.6393 5.98151 18.5602 6.13047 18.425C9.44297 15.1439 12.7505 11.8567 16.053 8.56316C17.0217 7.5983 17.9905 6.63406 18.9592 5.67044C19.3258 5.30768 19.7336 5.28618 20.0411 5.59939C20.3336 5.89763 20.3073 6.3006 19.9689 6.6512C19.8555 6.769 19.7383 6.88307 19.622 6.999L8.2464 18.3268C8.15828 18.4147 8.07578 18.5072 7.95109 18.6391C8.1189 18.6475 8.23234 18.6578 8.34015 18.6587C9.24297 18.6587 10.1448 18.6512 11.0467 18.6643C11.1555 18.6697 11.2642 18.651 11.3649 18.6095C11.4656 18.5679 11.5557 18.5046 11.6289 18.424C17.2164 12.8518 22.8067 7.2854 28.3998 1.72497C28.4786 1.6455 28.5517 1.56135 28.6614 1.44449C28.5189 1.43607 28.4308 1.42672 28.3417 1.42672C25.5658 1.42672 22.7889 1.42205 20.013 1.43607C19.823 1.4501 19.6443 1.53095 19.5086 1.6642C13.9105 7.22339 8.31672 12.7873 2.72734 18.3558C2.64859 18.4315 2.57734 18.5166 2.46109 18.6391ZM27.6442 7.502C26.5905 7.502 25.6464 7.49639 24.7023 7.50948C24.6086 7.50948 24.4998 7.61326 24.4211 7.69179C20.8223 11.2689 17.2258 14.8457 13.6314 18.4222C13.5679 18.4923 13.5084 18.566 13.4533 18.6428C13.547 18.6503 13.5902 18.6578 13.6408 18.6578C16.4758 18.6578 19.3108 18.6624 22.1458 18.6494C22.3135 18.6329 22.4699 18.5577 22.5873 18.4371C26.1548 14.8974 29.7173 11.353 33.2748 7.80399C33.3536 7.72639 33.4239 7.64037 33.5561 7.49826H33.1426C32.1001 7.49826 31.0576 7.50668 30.0151 7.49265C29.9004 7.48735 29.786 7.50759 29.6801 7.5519C29.5742 7.59621 29.4795 7.66348 29.403 7.74883C27.7023 9.4523 25.9967 11.1514 24.2861 12.8462C23.9364 13.193 23.492 13.2155 23.1986 12.9172C22.9051 12.619 22.9333 12.2066 23.2708 11.8617C23.6214 11.5017 23.9814 11.1511 24.3376 10.7968L27.6442 7.502ZM1.42422 21.3065C6.2139 22.0853 8.95797 24.8322 9.73703 29.5555H10.9492V20.1126H1.42422V21.3065ZM12.3873 22.5331C16.4373 23.2287 18.7989 25.5549 19.4917 29.5452H21.9423C21.9423 28.9562 21.9273 28.3962 21.9423 27.838C21.9718 26.8904 21.7452 25.9522 21.2861 25.122C20.147 23.0212 18.468 21.4907 16.2883 20.4977C15.032 19.9256 13.7092 20.0985 12.3892 20.0836L12.3873 22.5331ZM8.22765 29.5751C7.96797 25.8541 4.67453 22.9613 1.41203 22.8164C1.41203 23.7514 1.40641 24.6788 1.42234 25.6091C1.42234 25.6904 1.55359 25.8204 1.64453 25.8419C3.55609 26.3038 4.73828 27.4874 5.20703 29.3825C5.22578 29.4583 5.33078 29.5695 5.39453 29.5695C6.33109 29.5789 7.26484 29.5751 8.22765 29.5751ZM17.9926 29.563C17.9833 26.9779 14.7864 23.843 12.3995 24.0533V29.563H17.9926ZM26.1695 6.04535H29.6908V2.5365L26.1695 6.04535ZM18.513 20.0976C19.8424 20.986 20.9969 22.1104 21.9189 23.4148V20.1004L18.513 20.0976ZM1.47109 29.577H3.77359C3.51297 28.4121 2.54172 27.4547 1.46922 27.2808L1.47109 29.577Z" fill="black"/>
<path d="M28.8234 23.4297C28.824 23.2473 28.8952 23.0721 29.0222 22.9407C29.1492 22.8094 29.3222 22.732 29.505 22.7248C29.6939 22.7278 29.8743 22.8034 30.0088 22.9357C30.1432 23.0681 30.2213 23.247 30.2269 23.4354C30.2257 23.5288 30.2058 23.621 30.1685 23.7067C30.1312 23.7924 30.0772 23.8698 30.0095 23.9345C29.9419 23.9992 29.8621 24.0497 29.7746 24.0833C29.6872 24.1169 29.5939 24.1328 29.5003 24.13C29.4096 24.1288 29.3201 24.1097 29.2368 24.0737C29.1536 24.0378 29.0784 23.9858 29.0154 23.9207C28.9525 23.8555 28.9031 23.7786 28.8701 23.6944C28.8372 23.6101 28.8213 23.5202 28.8234 23.4297Z" fill="black"/>
</g>
<defs>
<clipPath id="clip0_320_4925">
<rect width="36" height="31" fill="white"/>
</clipPath>
</defs>
</svg>
