<svg width="21" height="31" viewBox="0 0 21 31" fill="none" xmlns="http://www.w3.org/2000/svg">
<g clip-path="url(#clip0_320_4937)">
<path d="M10.8889 8.03936H7.90055C6.1381 8.03936 4.37566 8.03936 2.61321 8.03936C1.26892 8.03936 0.199333 7.19447 0.0739912 5.82446C-0.0311679 4.58761 -0.0234747 3.34341 0.0969707 2.10802C0.208734 0.905918 1.23758 0.042844 2.4158 0.0203849C3.96899 -0.00849111 5.52219 0.00648333 7.07643 0.00541385C10.8095 0.00541385 14.5433 0.00541385 18.2778 0.00541385C19.5741 0.00541385 20.5047 0.655658 20.8536 1.79893C20.9277 2.02666 20.9702 2.2639 20.98 2.50372C20.9946 3.31867 21.0207 4.13682 20.9695 4.94963C20.9343 5.3738 20.8223 5.78758 20.6395 6.1699C17.0498 13.8887 13.4525 21.6061 9.84753 29.322C9.32527 30.4536 8.48966 31.0268 7.24877 31.0033C6.16561 30.9829 5.0814 31.0161 3.99824 30.9947C1.99695 30.9562 0.856334 29.0696 1.72119 27.2216C2.5098 25.5371 3.32453 23.8666 4.12358 22.1897C6.32124 17.6037 8.51821 13.0174 10.7145 8.43079C10.7688 8.32063 10.8127 8.21155 10.8889 8.03936ZM10.5275 1.9369H2.77302C2.10453 1.9369 1.91965 2.12513 1.91652 2.82029C1.91652 3.60886 1.91652 4.39742 1.91652 5.18598C1.91652 5.92179 2.10662 6.11429 2.81794 6.11429C5.97655 6.11429 9.13517 6.11429 12.2938 6.11429C13.166 6.11429 13.5879 6.80197 13.214 7.61157C13.0302 8.00941 12.8348 8.40192 12.6458 8.79656C9.58884 15.1792 6.53189 21.5605 3.47494 27.9403C3.14174 28.6365 3.39555 29.0547 4.14969 29.0557C5.15556 29.0557 6.16143 29.0344 7.16521 29.0654C7.66553 29.0814 7.94755 28.8964 8.16377 28.4312C11.5 21.2549 14.8247 14.0734 18.2193 6.92817C18.8575 5.58597 19.2168 4.2673 19.0946 2.78927C19.0403 2.13154 18.8857 1.93369 18.2413 1.93369L10.5275 1.9369Z" fill="black"/>
</g>
<defs>
<clipPath id="clip0_320_4937">
<rect width="21" height="31" fill="white"/>
</clipPath>
</defs>
</svg>
