<svg width="36" height="36" viewBox="0 0 36 36" fill="none" xmlns="http://www.w3.org/2000/svg">
<g clip-path="url(#clip0_320_4928)">
<path d="M36.0002 14.4119C35.6945 14.7481 35.3983 15.0937 35.0814 15.4196C34.5583 15.9568 34.023 16.4818 33.4923 17.0162C32.9917 17.5168 32.8492 17.5469 32.2023 17.2726V17.6586C32.2023 19.3216 32.2023 20.9852 32.2023 22.6495C32.2023 23.1735 31.9492 23.4769 31.5123 23.4835C31.0595 23.4891 30.7998 23.1829 30.7998 22.6382C30.7998 20.5645 30.7998 18.4908 30.7998 16.417C30.8088 16.3261 30.7939 16.2344 30.7565 16.1511C30.7192 16.0677 30.6608 15.9956 30.587 15.9418C26.4483 12.7179 22.312 9.48896 18.1783 6.25502C18.1248 6.2137 18.0658 6.17801 17.9908 6.12729C17.0805 6.83732 16.1758 7.54077 15.272 8.2461C12.0064 10.7969 8.73922 13.3468 5.47047 15.8958C5.30828 16.0216 5.19484 16.1372 5.19578 16.3757C5.20391 22.3508 5.20609 28.3256 5.20234 34.3001V34.565H7.17109V34.1893C7.17109 32.1387 7.17109 30.0888 7.17109 28.0395C7.17109 27.7277 7.27328 27.4478 7.56859 27.368C7.78984 27.3079 8.11047 27.3154 8.27828 27.4393C8.44609 27.5633 8.55953 27.8704 8.55953 28.0968C8.58109 30.1235 8.57266 32.1503 8.57266 34.1771V34.5725H30.7914V34.2099C30.7914 32.1719 30.7914 30.1336 30.7914 28.0949C30.7914 27.6854 31.0323 27.398 31.3923 27.3529C31.556 27.3282 31.7232 27.3627 31.8638 27.4503C32.0043 27.5379 32.1091 27.6729 32.1592 27.831C32.1881 27.9562 32.1992 28.0849 32.192 28.2132C32.192 30.193 32.192 32.1728 32.192 34.1527V34.5856H32.5548C33.3986 34.5856 34.2423 34.6025 35.0861 34.579C35.5089 34.5668 35.8155 34.6946 36.0039 35.0768V35.4985C35.8164 35.8798 35.507 35.9963 35.0861 35.9963C23.6986 35.9881 12.3105 35.9881 0.921719 35.9963C0.500781 35.9963 0.192344 35.8817 0.00390625 35.4985V35.0768C0.191406 34.6936 0.498906 34.5659 0.920781 34.579C1.69328 34.6035 2.46672 34.5856 3.23922 34.5856H3.78391V17.2736C3.16797 17.5412 3.01234 17.5102 2.53609 17.0341C1.98109 16.479 1.42141 15.9296 0.873906 15.368C0.572969 15.0599 0.293594 14.7312 0.00390625 14.4119V13.9902C0.207344 13.7854 0.392031 13.5563 0.617969 13.3797C5.07109 9.89594 9.52766 6.41593 13.9877 2.93969C15.2514 1.95354 16.5245 0.979603 17.793 3.05176e-05H18.2111C18.3264 0.0789223 18.4455 0.153119 18.5561 0.238585C20.3655 1.64924 22.1739 3.06053 23.9814 4.47244C24.6377 4.98712 25.3014 5.49898 26.0177 6.05591C26.0177 5.13833 26.0177 4.29869 26.0177 3.46C26.0177 2.85046 26.2614 2.60346 26.8614 2.60252H30.6555C31.2573 2.60252 31.4992 2.84765 31.4992 3.46C31.4992 5.6267 31.5048 7.79247 31.4936 9.95917C31.4849 10.0782 31.5076 10.1975 31.5595 10.3049C31.6113 10.4124 31.6904 10.5043 31.7889 10.5715C33.0245 11.5189 34.252 12.4762 35.4714 13.4436C35.6601 13.6136 35.8371 13.7962 36.0011 13.9902L36.0002 14.4119ZM3.33016 15.7577C3.40234 15.7061 3.48016 15.6554 3.55234 15.5981L17.3673 4.81337C17.8933 4.402 18.1014 4.402 18.6348 4.81337L32.4283 15.5802C32.522 15.6497 32.6158 15.7098 32.7095 15.7746L32.658 15.6807L34.143 14.2024L18.002 1.60228L1.81328 14.2391L3.33016 15.7577ZM30.078 4.03102H27.423C27.423 4.75796 27.4745 5.46329 27.4089 6.15828C27.3395 6.88616 27.5542 7.37923 28.1861 7.77557C28.8423 8.18881 29.4236 8.71475 30.078 9.22567V4.03102Z" fill="black"/>
<path d="M18.0152 15.3266H24.5862C25.218 15.3266 25.4515 15.5614 25.4515 16.1954C25.4515 20.587 25.4515 24.9787 25.4515 29.3703C25.4515 29.9817 25.2105 30.2268 24.6077 30.2268H11.3965C10.7909 30.2268 10.5527 29.9836 10.5527 29.375C10.5527 24.9834 10.5527 20.5917 10.5527 16.2001C10.5527 15.5642 10.7862 15.3266 11.4134 15.3266H18.0152ZM17.2737 22.0606V16.7589H11.9712V22.0606H17.2737ZM24.0415 16.7523H18.7277V22.0475H24.0415V16.7523ZM17.2737 28.8096V23.5079H11.9712V28.8096H17.2737ZM18.7174 28.7993H24.0237V23.5032H18.7174V28.7993Z" fill="black"/>
<path d="M8.57621 25.2078C8.57422 25.3946 8.49824 25.573 8.36497 25.7037C8.2317 25.8344 8.05207 25.9067 7.86559 25.9047C7.67911 25.9027 7.50105 25.8266 7.3706 25.6931C7.24014 25.5596 7.16797 25.3796 7.16996 25.1928C7.17095 25.1003 7.19011 25.0089 7.22635 24.9238C7.2626 24.8387 7.31522 24.7616 7.38121 24.6969C7.44719 24.6322 7.52526 24.5812 7.61094 24.5467C7.69663 24.5122 7.78825 24.4949 7.88059 24.4959C7.97292 24.4969 8.06416 24.5161 8.14909 24.5524C8.23402 24.5887 8.31098 24.6414 8.37557 24.7075C8.44017 24.7736 8.49113 24.8519 8.52556 24.9377C8.55998 25.0235 8.5772 25.1153 8.57621 25.2078Z" fill="black"/>
<path d="M31.4718 26.2907C31.3338 26.2849 31.2007 26.2384 31.089 26.157C30.9774 26.0756 30.8922 25.963 30.8443 25.8333C30.7964 25.7036 30.7878 25.5625 30.8197 25.4279C30.8515 25.2934 30.9224 25.1712 31.0233 25.0768C31.1243 24.9825 31.2508 24.9201 31.387 24.8976C31.5232 24.875 31.6631 24.8933 31.789 24.9502C31.9148 25.007 32.0211 25.0999 32.0944 25.2171C32.1678 25.3343 32.2049 25.4706 32.2011 25.6089C32.1998 25.7022 32.1796 25.7943 32.1418 25.8796C32.1041 25.9649 32.0495 26.0417 31.9814 26.1054C31.9133 26.169 31.833 26.2183 31.7455 26.2501C31.6579 26.282 31.5648 26.2958 31.4718 26.2907Z" fill="black"/>
</g>
<defs>
<clipPath id="clip0_320_4928">
<rect width="36" height="36" fill="white"/>
</clipPath>
</defs>
</svg>
