<svg width="30" height="36" viewBox="0 0 30 36" fill="none" xmlns="http://www.w3.org/2000/svg">
<g clip-path="url(#clip0_320_4933)">
<path d="M0.507627 36C0.115984 35.794 -0.00383252 35.4718 0.00242661 35.0422C0.0220982 33.6335 -0.0235037 32.2248 0.0167335 30.8241C0.10615 27.7171 1.53681 25.3788 4.27384 23.8275C5.3665 23.2112 6.5611 22.9374 7.81829 22.9277C8.53362 22.9224 9.24358 22.9277 10.0027 22.9277C10.0027 22.3264 10.0099 21.7453 9.99468 21.1669C9.99468 21.0788 9.90079 20.9846 9.82747 20.9177C8.76017 19.9577 7.96824 18.7379 7.53126 17.3811C7.47225 17.205 7.42217 17.0871 7.17896 17.0835C5.97542 17.0686 5.07321 16.528 4.56533 15.4539C4.07622 14.4194 4.22555 13.4289 4.92926 12.5168C4.95787 12.4807 4.98201 12.4411 4.98559 12.4358C4.78351 12.0837 4.54566 11.7703 4.41511 11.419C4.24101 10.946 4.25198 10.4261 4.44587 9.96062C4.63976 9.49515 5.00269 9.11741 5.46396 8.90099C5.55476 8.86395 5.63308 8.80239 5.68988 8.72341C5.74667 8.64443 5.77964 8.55126 5.78497 8.45463C6.27407 5.22087 8.09816 3.07971 11.2116 1.97392C11.3529 1.9141 11.4644 1.80176 11.5219 1.66137C11.8983 0.56614 12.6655 0.00972032 13.8414 0.00972032C14.6264 0.00972032 15.4133 0.0405347 16.1966 0.00267704C17.469 -0.0589517 18.2138 0.826742 18.4517 1.63408C18.5142 1.84538 18.6251 1.9255 18.8209 1.99417C21.7994 3.03305 23.5761 5.09497 24.1931 8.13768C24.2208 8.27502 24.2029 8.42381 24.2467 8.55411C24.2812 8.66904 24.3543 8.76901 24.4542 8.8376C25.8535 9.58155 26.1361 11.0738 25.0917 12.2527L25.0228 12.3302C25.2151 12.7229 25.4503 13.0821 25.5736 13.4747C25.7041 13.8836 25.7364 14.3167 25.6681 14.74C25.5998 15.1632 25.4328 15.5651 25.1801 15.9141C24.9274 16.263 24.596 16.5496 24.2119 16.7511C23.8277 16.9526 23.4014 17.0637 22.9663 17.0756C22.6417 17.0844 22.5246 17.1953 22.4298 17.478C22.0077 18.7986 21.254 19.9202 20.2346 20.8755C20.1024 21.0114 20.0216 21.188 20.0057 21.3755C19.9762 21.8756 19.995 22.3792 19.995 22.9259C20.3947 22.9259 20.7702 22.9259 21.1467 22.9259C22.1097 22.9189 23.0763 22.889 24.0142 23.1593C27.0615 24.0353 28.9455 26.0329 29.7601 29.0201C29.9046 29.5993 29.9784 30.1934 29.9801 30.7898C30.0114 32.2064 29.9801 33.6247 29.998 35.0422C30.0042 35.4727 29.8835 35.794 29.4919 36H0.507627ZM8.57386 12.8893C8.57386 13.546 8.56849 14.187 8.57386 14.8262C8.58995 16.4857 9.11035 17.9604 10.1977 19.2467C12.8703 22.4162 17.7086 22.2031 20.1488 18.8417C21.465 17.0254 21.507 14.9908 21.4006 12.8884L8.57386 12.8893ZM7.14856 34.5888V34.1802C7.14856 33.7708 7.13784 33.3606 7.15572 32.9477C7.15756 32.8566 7.17776 32.7669 7.21516 32.6836C7.25255 32.6004 7.30639 32.5252 7.37353 32.4626C7.44068 32.4001 7.5198 32.3512 7.60628 32.319C7.69277 32.2868 7.7849 32.2719 7.87731 32.275C8.05741 32.2791 8.22917 32.3506 8.35771 32.4748C8.48625 32.5991 8.56194 32.7669 8.56939 32.9441C8.58101 33.0956 8.57386 33.2488 8.57386 33.4011C8.57386 33.7937 8.57386 34.1864 8.57386 34.5747H14.2571C14.2707 34.5382 14.2803 34.5004 14.2858 34.462C14.2858 32.4837 14.2858 30.5045 14.2804 28.5262C14.2672 28.391 14.2068 28.2644 14.1096 28.1679C12.9347 26.943 11.7553 25.721 10.5714 24.5019C10.5079 24.4367 10.4274 24.3408 10.3532 24.339C9.76488 24.3258 9.17563 24.332 8.57386 24.332C8.57386 25.8093 8.57386 27.2373 8.57386 28.6653C8.57386 29.1487 8.28415 29.4577 7.85853 29.4577C7.43291 29.4577 7.15303 29.146 7.15124 28.6601C7.15124 27.5243 7.15124 26.3886 7.15124 25.2529V24.3628C6.76675 24.4508 6.42608 24.5441 6.07825 24.6075C5.7948 24.6595 5.70986 24.7889 5.71075 25.0812C5.72416 28.1257 5.7197 31.1692 5.7197 34.2137V34.5888H7.14856ZM22.8518 24.3487V24.8135C22.8518 26.0893 22.8625 27.3667 22.8411 28.6416C22.8292 28.8697 22.7465 29.0888 22.6041 29.2693C22.4316 29.4841 22.1499 29.5193 21.8888 29.4093C21.5696 29.2772 21.4292 29.0272 21.4301 28.6865C21.4301 27.3659 21.4301 26.0452 21.4301 24.7176V24.3258C20.8686 24.3258 20.3571 24.3126 19.8492 24.3346C19.6909 24.3453 19.5413 24.41 19.4263 24.5177C18.246 25.7221 17.0743 26.935 15.9113 28.1565C15.7937 28.2943 15.7277 28.4677 15.7245 28.6477C15.711 30.5089 15.7155 32.371 15.7173 34.2322C15.7173 34.3449 15.7271 34.4576 15.7325 34.5659H21.4301C21.4301 34.0614 21.4301 33.5824 21.4301 33.1035C21.4301 32.5893 21.7064 32.2742 22.1454 32.275C22.5845 32.2759 22.8536 32.5893 22.8608 33.1044C22.8608 33.5921 22.8608 34.079 22.8608 34.5667H24.2914V28.7886C24.2914 27.5358 24.2914 26.283 24.2843 25.0301C24.2843 24.9104 24.2029 24.7158 24.1135 24.6859C23.7174 24.5521 23.3123 24.4667 22.8518 24.3487ZM18.601 3.45477C18.588 3.47304 18.5789 3.4937 18.5742 3.51552C18.5742 4.4288 18.5742 5.34237 18.5742 6.25624C18.5742 6.92095 18.3256 7.25639 17.8436 7.24494C17.3778 7.23438 17.1489 6.9095 17.1489 6.25712C17.1489 5.00429 17.1533 3.75059 17.1489 2.49688C17.1489 1.74765 16.7912 1.4131 16.0392 1.4131C15.2872 1.4131 14.5406 1.4131 13.7904 1.4131C13.3522 1.4131 13.0491 1.63408 12.9356 2.05492C12.8897 2.23603 12.8669 2.42204 12.8676 2.60869C12.8623 3.8624 12.8676 5.11611 12.8676 6.36893C12.8676 6.91919 12.6092 7.23878 12.1657 7.24406C11.7222 7.24934 11.4441 6.92447 11.4432 6.35396C11.4432 5.4982 11.4432 4.64303 11.4432 3.78844V3.44332C9.35535 3.97157 7.32113 6.49835 7.24066 8.63775H22.7749C22.5711 6.24479 20.6745 4.05785 18.601 3.45477ZM14.9644 11.4665H23.3883C23.7299 11.4665 24.0321 11.3829 24.1931 11.058C24.4452 10.5562 24.0598 10.0605 23.4044 10.0596C17.801 10.0561 12.1976 10.0561 6.59418 10.0596C6.07825 10.0596 5.734 10.3449 5.72685 10.7534C5.71969 11.1619 6.07289 11.4577 6.61207 11.4656C6.69522 11.4656 6.77838 11.4656 6.86154 11.4656L14.9644 11.4665ZM4.27473 34.5808V25.5531C4.23449 25.5531 4.20677 25.5531 4.19247 25.5619C2.63573 26.7205 1.68882 28.2524 1.51535 30.162C1.39374 31.532 1.45454 32.9186 1.43577 34.3C1.43577 34.388 1.4456 34.4761 1.45186 34.5826L4.27473 34.5808ZM28.5673 34.5896V34.2172C28.5673 33.1883 28.5673 32.1588 28.5673 31.1287C28.5673 29.728 28.2239 28.425 27.4326 27.2496C26.9802 26.5779 26.449 25.9836 25.7337 25.5223V34.5905L28.5673 34.5896ZM14.968 26.9926C15.0145 26.9829 15.0297 26.9846 15.036 26.9785C16.1775 25.8046 17.3179 24.6275 18.457 23.4471C18.5158 23.3917 18.5542 23.3186 18.5661 23.2394C18.5759 22.859 18.5661 22.4787 18.5661 22.0464C16.1662 23.2235 13.8047 23.2042 11.4253 22.0543C11.4253 22.3907 11.4459 22.6609 11.42 22.9277C11.3914 23.2218 11.5004 23.4287 11.707 23.632C12.5538 24.486 13.3844 25.3559 14.2214 26.2204C14.478 26.4846 14.7302 26.746 14.968 26.9926ZM7.13604 12.8928C6.29285 12.95 5.6875 13.5733 5.72417 14.3243C5.7379 14.6823 5.89326 15.0209 6.15707 15.2676C6.42087 15.5144 6.77221 15.6498 7.13604 15.6449V12.8928ZM22.8634 15.6555C23.6682 15.637 24.2762 15.0392 24.2789 14.2821C24.2816 13.5249 23.678 12.9324 22.8634 12.8981V15.6555Z" fill="black"/>
<path d="M7.86523 31.5673C7.72403 31.5679 7.58582 31.5271 7.46829 31.4501C7.35075 31.373 7.25924 31.2632 7.20543 31.1346C7.15161 31.0061 7.13796 30.8646 7.1662 30.7284C7.19445 30.5922 7.26331 30.4673 7.36398 30.3699C7.46466 30.2724 7.59257 30.2066 7.73138 30.1811C7.87018 30.1555 8.01357 30.1713 8.14322 30.2264C8.27286 30.2816 8.38287 30.3735 8.45918 30.4905C8.53549 30.6075 8.57464 30.7442 8.57162 30.8832C8.56632 31.065 8.48984 31.2376 8.35818 31.3651C8.22653 31.4926 8.04989 31.5651 7.86523 31.5673Z" fill="black"/>
<path d="M22.8519 30.8559C22.8544 30.9949 22.8148 31.1314 22.7381 31.2481C22.6613 31.3648 22.551 31.4563 22.4212 31.5109C22.2914 31.5656 22.148 31.5809 22.0093 31.5549C21.8706 31.5289 21.743 31.4628 21.6426 31.365C21.5423 31.2672 21.4739 31.1422 21.446 31.0059C21.4182 30.8696 21.4323 30.7283 21.4865 30.5999C21.5407 30.4716 21.6325 30.362 21.7502 30.2853C21.8679 30.2086 22.0062 30.1681 22.1473 30.1691C22.3321 30.1718 22.5087 30.2448 22.6401 30.3728C22.7714 30.5008 22.8473 30.674 22.8519 30.8559Z" fill="black"/>
</g>
<defs>
<clipPath id="clip0_320_4933">
<rect width="30" height="36" fill="white" transform="translate(0 0.00012207)"/>
</clipPath>
</defs>
</svg>
