<svg width="61" height="41" viewBox="0 0 61 41" fill="none" xmlns="http://www.w3.org/2000/svg">
<g clip-path="url(#clip0_320_4911)">
<path d="M42.5 8.00008C35.3 7.60008 31.5 22.5001 30.5 30.0001L26.5 29.5L25 28.5L21 20.5L12.5 14L9 13V14L15 24L21 31H30.5L34.5 30.0001L39.5 20.5L40 16L42.5 8.00008Z" fill="#FFD600"/>
<path d="M1.75969e-05 19.895C0.477401 18.9731 1.24121 18.6837 2.28191 18.6947C5.91798 18.7311 9.28353 19.7068 12.4311 21.4558C12.6356 21.5877 12.8705 21.6655 13.1137 21.6819C12.4167 20.575 11.7771 19.4348 11.0069 18.3864C10.1794 17.2589 9.24693 16.2041 8.32399 15.1493C7.68748 14.4172 7.50925 13.6597 7.91662 12.9449C8.34308 12.1969 9.08939 11.936 10.0792 12.1843C13.8982 13.1426 17.1094 15.1098 19.8432 17.8898C19.9829 18.0525 20.1101 18.2253 20.2236 18.4069L20.432 18.2788C20.1997 17.319 19.996 16.3496 19.7271 15.3992C19.1465 13.2694 18.3064 11.2179 17.2256 9.29039C16.7339 8.43645 16.8214 7.67265 17.4277 7.07648C18.034 6.48031 18.8137 6.41705 19.6634 6.88988C21.5531 7.9441 23.2582 9.29577 24.7125 10.8923C24.8574 11.0504 25.0069 11.2086 25.209 11.4189C25.5941 10.2471 25.9331 9.12751 26.3229 8.02846C27.1329 5.76711 27.9667 3.51525 28.8069 1.26655C29.1395 0.374666 29.6535 0.00146484 30.4698 0.00146484C31.2861 0.00146484 31.8271 0.376245 32.1836 1.29344C32.54 2.21063 32.8869 3.08987 33.2259 3.99441C33.4487 4.58742 33.2641 5.07605 32.766 5.27531C32.2679 5.47456 31.7969 5.24368 31.555 4.64276C31.2113 3.79357 30.8867 2.93647 30.4921 1.92281C30.0942 2.94438 29.7251 3.80148 29.4243 4.68388C28.5077 7.36481 27.6097 10.0531 26.7303 12.7488C26.6449 13.0165 26.6689 13.3067 26.7971 13.5569C28.3966 16.0531 29.5823 18.7884 30.3091 21.6582C30.3473 21.8006 30.3966 21.9397 30.4921 22.2417C30.7117 21.4969 30.8835 20.9055 31.0617 20.3172C31.7528 17.9706 32.787 15.7376 34.1313 13.6897C34.2332 13.5498 34.2978 13.3865 34.319 13.215C34.3401 13.0435 34.3172 12.8695 34.2523 12.7093C33.8497 11.4742 33.4741 10.2313 33.0906 8.98992C32.8758 8.29571 33.0683 7.79442 33.611 7.62837C34.125 7.47024 34.5657 7.76121 34.7901 8.41905C35.1179 9.3995 35.4266 10.3847 35.7258 11.2813C37.0243 10.1744 38.2925 9.04686 39.6101 7.97944C40.1782 7.54946 40.7813 7.16704 41.413 6.83611C42.1816 6.40124 42.9693 6.50244 43.5437 7.06541C44.1182 7.62837 44.2502 8.41273 43.8095 9.18127C42.2723 11.8585 41.3191 14.7445 40.6794 17.7444C40.6396 17.9246 40.6142 18.1081 40.5728 18.3469C41.5849 17.4613 42.4982 16.5915 43.4864 15.8167C45.682 14.0842 48.2283 12.8435 50.9511 12.1795C51.8852 11.9471 52.6395 12.2191 53.0611 12.9497C53.459 13.6407 53.3396 14.4551 52.6904 15.1066C50.7442 17.0565 49.223 19.3052 47.8227 21.8701L48.4894 21.5001C51.7658 19.6673 55.2619 18.6536 59.0459 18.7232C60.0405 18.7406 60.6674 19.1423 60.9157 19.9567C61.1639 20.7711 60.8361 21.5112 60.0039 21.9982C55.8459 24.4288 52.7047 27.9046 49.8706 31.6983C49.8456 31.7438 49.8248 31.7914 49.8086 31.8406C50.9113 32.2091 52.0205 32.5538 53.1089 32.9476C55.421 33.7873 57.6663 34.7709 59.7381 36.1103C60.6929 36.7286 61.1178 37.6411 60.9491 38.7496C60.782 39.8312 60.1264 40.5682 59.0555 40.8844C58.7684 40.9589 58.4721 40.9924 58.1755 40.9841C53.372 40.9904 48.5679 40.9935 43.7633 40.9935C43.2859 40.9935 42.8865 40.905 42.686 40.4353C42.6361 40.3108 42.6151 40.1766 42.6245 40.0429C42.6339 39.9091 42.6734 39.7792 42.7402 39.6627C42.807 39.5462 42.8993 39.4461 43.0103 39.3699C43.1213 39.2937 43.2481 39.2433 43.3814 39.2224C43.5785 39.2018 43.777 39.1971 43.975 39.2082C48.6427 39.2082 53.3104 39.2082 57.9782 39.2082C58.516 39.2082 58.9918 39.1386 59.151 38.5456C59.3101 37.9526 58.9059 37.6853 58.4794 37.4386C55.1043 35.4192 51.4365 34.1178 47.6397 33.169C41.5037 31.624 35.2548 31.1243 28.9438 31.2302C23.3743 31.3235 17.8716 31.9497 12.4836 33.3967C9.16577 34.2886 5.95935 35.4524 2.96616 37.1698C2.67495 37.3279 2.32965 37.4734 2.13074 37.7201C1.93183 37.9668 1.80293 38.3527 1.88409 38.5994C1.96524 38.8461 2.32169 39.0469 2.59698 39.1924C2.75611 39.2762 2.98684 39.2129 3.18416 39.2129H38.9179C39.922 39.2129 40.3707 39.496 40.3659 40.1206C40.3612 40.7453 39.9331 40.9856 38.8972 40.9856C27.0454 40.9856 15.1872 40.9667 3.3417 41.0078C1.71223 41.0078 0.58879 40.4923 1.75969e-05 38.9615V37.7771C0.318273 36.7745 1.02162 36.1056 1.95092 35.6691C3.84613 34.7788 5.73339 33.8695 7.65883 33.0488C8.79341 32.5649 9.99483 32.2344 11.1962 31.8232C11.0578 31.6319 10.9544 31.4643 10.8287 31.314C9.61928 29.8782 8.4131 28.4407 7.19418 27.0127C6.65474 26.3802 6.78363 25.5563 7.51244 25.4424C7.70004 25.4322 7.88766 25.4622 8.06256 25.5304C8.23746 25.5986 8.39555 25.7035 8.52608 25.8378C9.95823 27.4935 11.3617 29.1839 12.7398 30.8886C13.0135 31.2271 13.2331 31.3377 13.6707 31.2429C15.262 30.9013 16.8532 30.6103 18.4445 30.294L19.5743 30.0806C17.3561 27.2989 14.8705 24.9775 11.8773 23.219C8.85388 21.4447 3.7618 20.0705 2.23417 20.5702C3.18894 21.2581 4.16916 21.9524 5.13348 22.675C5.72066 23.1162 5.81932 23.646 5.45173 24.0904C5.10802 24.5015 4.5829 24.4873 4.01958 24.0904C3.16984 23.4768 2.29146 22.9028 1.45763 22.2686C0.938872 21.8749 0.478992 21.402 -0.00634766 20.9656L1.75969e-05 19.895ZM29.5691 29.361C29.5288 26.954 29.1998 24.5603 28.5889 22.2307C27.483 17.9167 25.6053 14.0076 22.2445 10.9619C21.2658 10.0732 20.1519 9.3315 18.9999 8.44435C18.9885 8.54947 18.9885 8.6555 18.9999 8.76062C20.8855 12.2048 21.9024 15.9337 22.5293 19.778C22.6327 20.4105 22.6232 21.1443 22.9478 21.6535C24.4596 24.0103 25.7113 26.5224 26.681 29.146C26.7166 29.2261 26.7711 29.2966 26.8397 29.3516C26.9084 29.4066 26.9892 29.4446 27.0756 29.4622C27.8871 29.4543 28.6923 29.4022 29.5691 29.361ZM41.9811 8.64519C38.6967 10.4653 36.2875 13.1205 34.5864 16.4097C32.4891 20.4627 31.5487 24.8004 31.4039 29.361C32.2281 29.399 32.9601 29.4132 33.6873 29.4765C34.0693 29.5081 34.2363 29.3879 34.3668 29.0226C35.2682 26.4777 36.4791 24.0519 37.9727 21.799C38.1045 21.6061 38.1925 21.387 38.2304 21.1569C38.8526 16.8098 39.887 12.5875 41.9763 8.65309L41.9811 8.64519ZM9.78637 13.9649C9.80885 14.0234 9.8371 14.0795 9.87071 14.1325C12.5504 16.941 14.4854 20.2223 16.099 23.7187C16.1909 23.9348 16.3275 24.1293 16.5 24.2896C18.3328 25.8649 19.9956 27.6254 21.4616 29.5429C21.5339 29.6261 21.6229 29.6935 21.7229 29.7406C21.823 29.7877 21.9317 29.8135 22.0424 29.8165C22.9717 29.7595 23.8962 29.6583 24.8955 29.5524C23.3663 25.4408 21.2547 21.7278 18.0721 18.6694C15.7282 16.4176 13.0055 14.8093 9.78637 13.9649ZM36.1331 29.5571C37.0879 29.6504 38.0156 29.7627 38.9433 29.8133C39.1831 29.7931 39.4051 29.6794 39.5607 29.497C40.3055 28.6526 40.9786 27.7417 41.7551 26.9289C42.7099 25.9295 43.889 25.1103 44.6958 24.0129C45.5026 22.9154 45.9688 21.527 46.634 20.3014C47.8767 18.0178 49.4177 15.9074 51.2169 14.025C45.5503 14.735 38.0713 22.4363 36.1331 29.5571ZM41.4878 30.0742C41.5777 30.1124 41.6702 30.1441 41.7647 30.1691C43.6503 30.5297 45.5376 30.8776 47.4201 31.2524C47.7877 31.3251 47.9834 31.2191 48.1966 30.925C50.2653 28.0786 52.5312 25.4266 55.2444 23.1763C56.3774 22.2354 57.5931 21.3941 58.7452 20.5307C53.9077 19.7764 44.3775 25.0139 41.4878 30.0742Z" fill="#151515"/>
</g>
<defs>
<clipPath id="clip0_320_4911">
<rect width="61" height="41" fill="white"/>
</clipPath>
</defs>
</svg>
