<svg width="49" height="45" viewBox="0 0 49 45" fill="none" xmlns="http://www.w3.org/2000/svg">
<g clip-path="url(#clip0_320_4895)">
<path d="M-7.82802e-05 16.2419C0.0598957 16.0616 0.127525 15.8839 0.178567 15.7023C0.455999 14.6814 1.05119 13.7809 1.8738 13.1377C2.69641 12.4945 3.70153 12.1436 4.73659 12.1383C6.58685 12.1291 8.43711 12.1383 10.2861 12.1291C10.5383 12.1299 10.7882 12.0792 11.0211 11.9802C17.557 9.07375 24.0907 6.16163 30.6224 3.24385C30.7325 3.20967 30.8307 3.14386 30.9053 3.05424C30.9799 2.96462 31.0279 2.85494 31.0435 2.73824C31.3944 0.957524 32.8925 -0.160813 34.633 0.0194797C36.2625 0.188014 37.5079 1.65126 37.5079 3.42675C37.5079 16.143 37.5079 28.855 37.5079 41.5626C37.5079 43.3433 36.2778 44.7987 34.6432 44.9803C33.8183 45.0845 32.9857 44.862 32.3158 44.3583C31.6458 43.8546 31.1893 43.1077 31.0396 42.2707C31.0254 42.1539 30.9789 42.0437 30.9057 41.953C30.8325 41.8623 30.7355 41.7949 30.6262 41.7585C28.8015 40.9529 26.9784 40.1407 25.1571 39.322C24.528 39.0411 24.2741 38.5538 24.4693 38.0155C24.6875 37.4237 25.2451 37.2081 25.887 37.4929C27.3621 38.1462 28.8321 38.8059 30.3046 39.4618C30.505 39.5506 30.7079 39.6342 30.9554 39.7401V5.24927C30.1017 5.62946 29.2851 5.97698 28.4876 6.36892C28.3791 6.42118 28.3242 6.68901 28.3242 6.85754C28.3157 10.8344 28.3132 14.8109 28.3166 18.7869C28.3166 19.8321 28.3166 20.8773 28.3166 21.9159C28.3166 22.6737 27.9618 23.1009 27.3468 23.0996C26.7317 23.0983 26.4025 22.6841 26.3948 21.9054C26.3948 21.7748 26.3948 21.6442 26.3948 21.5135V7.30566C26.2073 7.37882 26.0644 7.42716 25.9278 7.48856C21.3647 9.52317 16.8011 11.5556 12.2372 13.5859C11.9373 13.7165 11.8544 13.8798 11.8544 14.2025C11.8646 19.7271 11.8646 25.2518 11.8544 30.7764C11.8544 31.1161 11.9437 31.2859 12.2627 31.4296C14.0772 32.2135 15.8815 33.034 17.6871 33.8453C18.2716 34.1066 18.5293 34.5259 18.4272 35.0028C18.2831 35.6822 17.6616 35.98 16.9687 35.6756C15.2754 34.9257 13.5732 34.1941 11.9016 33.3972C11.1137 33.0112 10.2466 32.8256 9.37372 32.8563C7.87565 32.9046 6.3763 32.8719 4.87695 32.8693C2.49331 32.8693 0.623905 31.3408 0.0905196 28.9748C0.0669601 28.9012 0.0352807 28.8306 -0.00390625 28.7644L-7.82802e-05 16.2419ZM32.9218 22.479V41.249C32.9218 41.4123 32.9218 41.5756 32.9218 41.7376C32.9429 42.0742 33.0833 42.3914 33.3166 42.6295C33.5499 42.8676 33.8601 43.0104 34.1889 43.0311C34.5019 43.0424 34.8086 42.9396 35.0544 42.741C35.3002 42.5424 35.4692 42.2609 35.5313 41.9467C35.5707 41.7393 35.589 41.5282 35.5862 41.317C35.5862 28.7696 35.5862 16.2232 35.5862 3.67759C35.5886 3.44969 35.5659 3.22223 35.5185 2.99953C35.4024 2.47695 35.0643 2.15948 34.5602 2.02099C34.0562 1.88251 33.5943 2.0027 33.3148 2.41293C33.0813 2.75168 32.9484 3.15228 32.932 3.56655C32.909 9.86765 32.9154 16.1727 32.9154 22.4842L32.9218 22.479ZM7.27336 14.1097V15.9741C7.27336 19.0547 7.27336 22.1354 7.27336 25.216C7.27336 25.8196 7.05261 26.1737 6.59961 26.3174C5.93607 26.5264 5.36568 26.047 5.3644 25.2644C5.3644 21.7273 5.3644 18.1903 5.3644 14.6532V14.1372C3.42354 13.8759 1.91909 15.2006 1.91909 17.1551C1.90973 20.7087 1.90973 24.2619 1.91909 27.8146C1.91909 29.6528 3.15813 30.9044 4.965 30.9109C6.47966 30.9175 7.9956 30.9109 9.51026 30.9109C9.64935 30.9109 9.78716 30.8953 9.92625 30.8861V14.1097H7.27336Z" fill="black"/>
<path d="M48.9999 26.7056C48.4512 27.5796 47.8744 27.6436 47.1509 26.9041C46.1837 25.9165 45.2177 24.9275 44.1879 23.8731C43.8472 24.2363 43.5371 24.5786 43.2156 24.9105C42.5201 25.6277 41.826 26.3476 41.1178 27.0505C40.6609 27.5038 40.0612 27.5103 39.6746 27.0962C39.2879 26.682 39.3236 26.1033 39.7575 25.6591C40.7643 24.6139 41.7826 23.587 42.82 22.5236C42.7128 22.3994 42.6273 22.2871 42.5303 22.1878C41.6652 21.2994 40.7979 20.4127 39.9285 19.5278C39.3364 18.9216 39.2535 18.322 39.6988 17.8791C40.1441 17.4362 40.7107 17.5328 41.313 18.1469L44.0871 20.9767C44.1101 20.9989 44.1382 21.0146 44.2032 21.0629C44.2977 20.9793 44.4061 20.8957 44.5031 20.8016C45.3606 19.9307 46.2168 19.0558 47.0718 18.1769C47.8553 17.3774 48.2738 17.3826 48.9973 18.2018V18.8863C48.8596 19.0836 48.7114 19.2729 48.5533 19.4534C47.8157 20.2207 47.0722 20.9811 46.3227 21.7345C46.0765 21.9814 45.8021 22.1996 45.5073 22.4622C46.1837 23.1441 46.7706 23.7164 47.3359 24.3108C47.9012 24.9053 48.4448 25.518 48.9948 26.1229L48.9999 26.7056Z" fill="#FFD600"/>
<path d="M21.4695 35.6079C21.5961 35.6117 21.7207 35.6413 21.8359 35.6951C21.9512 35.7488 22.0548 35.8256 22.1407 35.9209C22.2267 36.0161 22.2931 36.128 22.3363 36.2499C22.3795 36.3718 22.3984 36.5013 22.3921 36.6308C22.3856 36.7607 22.3539 36.8879 22.2989 37.0051C22.2438 37.1222 22.1665 37.227 22.0715 37.3132C21.9765 37.3995 21.8656 37.4655 21.7454 37.5073C21.6251 37.5492 21.498 37.5661 21.3713 37.5571C21.2485 37.5519 21.128 37.5219 21.0166 37.4689C20.9052 37.4159 20.8051 37.3408 20.7221 37.2481C20.6391 37.1553 20.5748 37.0467 20.5329 36.9284C20.491 36.8102 20.4724 36.6846 20.478 36.559C20.4783 36.4287 20.5046 36.2998 20.5554 36.1803C20.6061 36.0608 20.6802 35.9532 20.7731 35.8641C20.8659 35.775 20.9756 35.7063 21.0954 35.6622C21.2152 35.6181 21.3425 35.5996 21.4695 35.6079Z" fill="black"/>
</g>
<defs>
<clipPath id="clip0_320_4895">
<rect width="49" height="45" fill="white"/>
</clipPath>
</defs>
</svg>
