<svg width="50" height="48" viewBox="0 0 50 48" fill="none" xmlns="http://www.w3.org/2000/svg">
<g clip-path="url(#clip0_320_4899)">
<path d="M-0.000154396 22.5431C0.316813 22.0399 0.782481 21.8912 1.36033 21.8912C4.59783 21.9082 7.83664 21.8912 11.0755 21.9082C11.4537 21.9082 11.6324 21.8104 11.7837 21.4401C12.1751 20.4819 12.6394 19.551 13.0751 18.6097C13.1351 18.4793 13.2055 18.3568 13.2981 18.1586H11.6024C10.3333 18.1586 9.06408 18.1586 7.7949 18.1586C7.07879 18.1586 6.64573 17.7779 6.64964 17.1808C6.65356 16.5837 7.10879 16.2043 7.80664 16.2043C9.95498 16.2043 12.1033 16.2043 14.2503 16.1926C14.4658 16.1962 14.6743 16.1163 14.8321 15.9696C17.6844 12.4782 21.2962 10.188 25.6677 9.09889C25.7447 9.07933 25.819 9.05326 25.9286 9.01936C25.9286 8.28144 25.9481 7.55004 25.9103 6.82125C25.9103 6.69087 25.6834 6.51226 25.519 6.44186C24.3229 5.90732 23.5807 5.01817 23.445 3.70399C23.2989 2.30246 23.8494 1.17081 25.0899 0.490259C25.6333 0.204182 26.2355 0.0475631 26.8495 0.0326425C29.0943 -0.0195073 31.3405 0.00917587 33.5867 0.0130871C35.4128 0.0130871 36.7563 1.12388 37.0642 2.86568C37.3355 4.39628 36.3885 5.90993 34.7789 6.51617C34.7202 6.53964 34.6589 6.55919 34.5924 6.58396V9.03631C36.8437 9.55781 38.9503 10.3857 40.8652 11.6438C45.9093 14.9644 48.9355 19.6084 49.7938 25.5939C50.476 30.3434 49.4546 34.7579 46.9358 38.836C46.6828 39.2454 46.3593 39.4879 45.8571 39.424C45.4397 39.3693 45.1266 39.1189 45.081 38.7278C45.0512 38.3964 45.126 38.0641 45.2949 37.7774C46.4754 35.8622 47.3402 33.8192 47.7015 31.6002C48.7607 25.0815 46.9515 19.491 42.0587 15.0244C38.4951 11.765 34.1906 10.3309 29.3865 10.5552C21.5889 10.9202 15.0434 16.2956 13.0764 23.8273C10.5641 33.4633 16.5004 43.304 26.2377 45.5347C30.9753 46.6194 35.4689 45.8945 39.6417 43.3522C39.8415 43.2153 40.0616 43.1106 40.2939 43.0419C40.5218 42.9962 40.7585 43.0339 40.961 43.1479C41.1635 43.262 41.3184 43.4449 41.3973 43.6634C41.4763 43.8819 41.4742 44.1215 41.3914 44.3386C41.3086 44.5557 41.1506 44.7358 40.9461 44.8463C39.9025 45.4291 38.859 46.0483 37.7516 46.506C27.7365 50.661 16.1548 45.8306 12.0433 35.7983C11.8803 35.3981 11.6833 35.2768 11.2607 35.2846C9.21147 35.3081 7.16096 35.2977 5.11046 35.2924C4.42435 35.2924 3.98998 34.9756 3.91303 34.4554C3.81389 33.7879 4.29391 33.3068 5.08698 33.3042C6.91313 33.2977 8.73276 33.3042 10.555 33.3042H11.1198C10.9189 32.0448 10.7285 30.8271 10.5263 29.5703C9.13321 29.5703 7.7362 29.5703 6.3392 29.5703C5.75483 29.5703 5.35699 29.26 5.27742 28.7685C5.17568 28.1401 5.61526 27.6316 6.28963 27.6264C7.51054 27.616 8.73015 27.6264 9.95106 27.6264H10.4911C10.6502 26.3826 10.808 25.1663 10.9711 23.899H10.4246C7.39836 23.899 4.37217 23.8886 1.34467 23.9068C0.755089 23.9068 0.301161 23.7387 -0.00537109 23.2341L-0.000154396 22.5431ZM30.2174 4.69353C31.3718 4.69353 32.5249 4.69353 33.6793 4.69353C34.5063 4.69353 35.1141 4.12901 35.1285 3.36763C35.1332 3.18771 35.1016 3.00869 35.0353 2.84132C34.9691 2.67395 34.8697 2.52169 34.7431 2.3937C34.6165 2.2657 34.4653 2.16461 34.2987 2.09651C34.132 2.0284 33.9533 1.99469 33.7732 1.99739C31.4331 1.96871 29.0935 1.96871 26.7543 1.99739C25.9103 2.00782 25.3546 2.6297 25.3833 3.395C25.412 4.1603 26.0108 4.69093 26.8547 4.69875C27.9752 4.69745 29.097 4.69353 30.2174 4.69353ZM32.5953 6.7H27.9465V8.63085H32.5953V6.7Z" fill="black"/>
<path d="M0 33.9614C0.273923 33.5885 0.572628 33.2404 1.0996 33.3265C1.31194 33.3485 1.51058 33.4417 1.6633 33.5908C1.81602 33.7399 1.91385 33.9362 1.94094 34.1478C1.97664 34.3572 1.94152 34.5725 1.84112 34.7598C1.74073 34.947 1.58079 35.0954 1.38657 35.1817C1.19521 35.2753 0.977898 35.3017 0.769659 35.2568C0.56142 35.2118 0.374386 35.0981 0.238704 34.934C0.153919 34.8427 0.079568 34.741 0 34.6432V33.9614Z" fill="black"/>
<path d="M30.2946 13.1223C38.6949 13.1706 45.4621 19.9709 45.4164 28.3188C45.4116 30.3179 45.0107 32.2962 44.2368 34.1396C43.463 35.983 42.3316 37.655 40.9079 39.0591C39.4842 40.4632 37.7964 41.5716 35.9419 42.3203C34.0873 43.069 32.1028 43.4432 30.1029 43.4214C21.8291 43.3653 15.0867 36.5259 15.1271 28.2314C15.1637 19.8705 21.9856 13.0754 30.2946 13.1223ZM30.2946 15.1092C23.0383 15.0975 17.1046 20.9761 17.0889 28.2066C17.0792 31.7078 18.4593 35.0698 20.9264 37.5552C23.3935 40.0406 26.7462 41.4465 30.249 41.4644C37.4662 41.4879 43.439 35.5533 43.4533 28.3435C43.4621 26.61 43.1283 24.8919 42.4711 23.2876C41.814 21.6834 40.8463 20.2246 39.6238 18.995C38.4012 17.7654 36.9478 16.7892 35.3468 16.1224C33.7459 15.4556 32.029 15.1113 30.2946 15.1092Z" fill="black"/>
<path d="M43.5314 40.5387C43.6637 40.5367 43.795 40.5614 43.9176 40.6111C44.0402 40.6609 44.1516 40.7348 44.245 40.8285C44.3385 40.9221 44.4122 41.0336 44.4617 41.1562C44.5112 41.2789 44.5356 41.4102 44.5333 41.5425C44.531 41.6747 44.5022 41.8052 44.4485 41.926C44.3948 42.0469 44.3173 42.1558 44.2207 42.2462C44.124 42.3365 44.0102 42.4066 43.886 42.4521C43.7617 42.4976 43.6296 42.5178 43.4974 42.5112C43.2413 42.4986 43.0002 42.387 42.825 42.1998C42.6498 42.0127 42.5543 41.7648 42.5587 41.5085C42.5631 41.2523 42.6671 41.0078 42.8486 40.8268C43.0301 40.6458 43.275 40.5425 43.5314 40.5387Z" fill="black"/>
<path d="M27.2212 28.2392C27.2512 28.0436 27.2356 27.7633 27.3386 27.5378C27.5551 27.0606 27.4208 26.7555 27.0412 26.4231C26.4894 25.9433 25.9977 25.4022 25.4759 24.8794C24.9881 24.3801 24.9607 23.7843 25.3911 23.3736C25.7981 22.9825 26.3929 23.0255 26.8651 23.4909C27.473 24.0881 28.0769 24.68 28.6626 25.2875C28.7293 25.3757 28.8253 25.4373 28.9333 25.4612C29.0414 25.4851 29.1544 25.4697 29.2521 25.4179C29.8964 25.1668 30.6111 25.1644 31.257 25.4114C31.5648 25.5287 31.7214 25.4401 31.9235 25.2367C33.3779 23.77 34.8297 22.2993 36.3167 20.8652C36.5554 20.6344 36.9689 20.4389 37.2898 20.4741C38.0868 20.5471 38.3829 21.4936 37.8246 22.1064C37.3029 22.6826 36.7276 23.2185 36.1759 23.7713C35.2224 24.7256 34.2741 25.6878 33.3062 26.6291C33.0766 26.852 33.0453 27.0202 33.1445 27.337C33.5175 28.5625 33.2592 29.6668 32.2914 30.5299C31.3457 31.3734 30.2409 31.5729 29.0721 31.0605C27.9034 30.5481 27.2943 29.5925 27.2212 28.2392ZM30.2839 27.2171C30.142 27.2146 30.0011 27.2404 29.8692 27.2929C29.7373 27.3453 29.6172 27.4234 29.5158 27.5226C29.4143 27.6218 29.3336 27.7401 29.2783 27.8708C29.223 28.0014 29.1941 28.1417 29.1935 28.2835C29.2143 28.5548 29.3373 28.808 29.5376 28.9921C29.738 29.1763 30.0008 29.2775 30.273 29.2756C30.5451 29.2736 30.8064 29.1685 31.0041 28.9814C31.2017 28.7944 31.321 28.5394 31.3379 28.2679C31.3325 27.9904 31.2197 27.7258 31.0231 27.5299C30.8265 27.3339 30.5615 27.2217 30.2839 27.2171Z" fill="#FFD600"/>
<path d="M20.2687 29.282C20.0277 29.2678 19.788 29.2368 19.5513 29.1894C19.338 29.1333 19.151 29.0043 19.0231 28.8247C18.8951 28.6451 18.8341 28.4263 18.8509 28.2064C18.8574 27.9859 18.9425 27.775 19.0907 27.6115C19.239 27.448 19.4407 27.3428 19.6596 27.3147C20.0287 27.2682 20.4016 27.2608 20.7722 27.2925C21.3553 27.3407 21.7101 27.7384 21.7062 28.2729C21.7023 28.8074 21.3031 29.2116 20.7083 29.2546C20.5635 29.2651 20.4161 29.2546 20.2713 29.2546L20.2687 29.282Z" fill="#FFD600"/>
<path d="M31.2479 18.3099C31.2479 18.4715 31.2571 18.6332 31.2479 18.7949C31.2425 19.039 31.1415 19.2713 30.9667 19.4419C30.7918 19.6126 30.557 19.7079 30.3127 19.7075C30.1872 19.7149 30.0615 19.6973 29.9428 19.6559C29.8241 19.6145 29.7147 19.55 29.6211 19.4661C29.5275 19.3822 29.4514 19.2806 29.3973 19.1672C29.3432 19.0538 29.312 18.9308 29.3057 18.8053C29.2835 18.4658 29.2835 18.1252 29.3057 17.7858C29.3102 17.6605 29.3396 17.5373 29.392 17.4234C29.4445 17.3095 29.5191 17.2072 29.6114 17.1223C29.7037 17.0374 29.812 16.9717 29.9299 16.9289C30.0478 16.8862 30.173 16.8672 30.2983 16.8731C30.841 16.8797 31.2192 17.2538 31.2505 17.8236C31.2597 17.9852 31.2505 18.1469 31.2505 18.3099H31.2479Z" fill="#FFD600"/>
<path d="M31.231 38.2623C31.2434 38.456 31.2434 38.6502 31.231 38.8438C31.1947 39.0779 31.0772 39.2918 30.8991 39.4482C30.721 39.6045 30.4936 39.6933 30.2566 39.6991C30.0113 39.6953 29.7764 39.5993 29.5987 39.4302C29.421 39.261 29.3136 39.0312 29.2979 38.7864C29.279 38.4469 29.279 38.1065 29.2979 37.7669C29.3053 37.5137 29.4105 37.2732 29.5914 37.0957C29.7723 36.9183 30.0149 36.8178 30.2683 36.8152C30.5136 36.823 30.7475 36.9201 30.9262 37.0881C31.1049 37.2562 31.2161 37.4836 31.2388 37.7278C31.2558 37.9038 31.2388 38.0837 31.2388 38.2623H31.231Z" fill="#FFD600"/>
<path d="M40.2521 29.2625C40.0584 29.2755 39.864 29.2755 39.6703 29.2625C39.4266 29.2305 39.2042 29.1069 39.0486 28.9167C38.893 28.7265 38.8159 28.4841 38.8329 28.2391C38.8374 28.0015 38.9325 27.7747 39.0989 27.605C39.2652 27.4354 39.4902 27.3357 39.7277 27.3264C40.0675 27.3075 40.408 27.3075 40.7477 27.3264C40.9933 27.3281 41.2285 27.4252 41.4036 27.5973C41.5787 27.7694 41.6798 28.0028 41.6856 28.2482C41.6962 28.5014 41.6085 28.7489 41.4408 28.9389C41.273 29.1289 41.0382 29.2467 40.7856 29.2677C40.6095 29.2847 40.4295 29.2677 40.2521 29.2677V29.2625Z" fill="#FFD600"/>
</g>
<defs>
<clipPath id="clip0_320_4899">
<rect width="50" height="48" fill="white"/>
</clipPath>
</defs>
</svg>
