<svg width="50" height="50" viewBox="0 0 50 50" fill="none" xmlns="http://www.w3.org/2000/svg">
<g clip-path="url(#clip0_320_4883)">
<path d="M0 30.8598C0.475725 30.071 1.32445 30.1541 2.05821 30.0037C3.3154 29.753 4.58114 29.5536 5.84322 29.3298C7.5908 29.0215 9.16962 30.0856 9.55729 31.8371C9.59887 32.0255 9.63801 32.2138 9.68571 32.4352L12.9155 31.3258C12.8079 30.4697 12.6648 29.6478 12.6024 28.8148C12.4153 26.272 12.9803 23.8833 14.1433 21.6243C16.1343 17.7552 18.1224 13.8858 20.1076 10.0159C20.1808 9.89536 20.22 9.75723 20.2211 9.61619C20.2222 9.47515 20.1851 9.33644 20.1137 9.21478C19.1427 7.30676 18.1741 5.39629 17.2325 3.47359C16.5586 2.09639 17.1823 0.591985 18.5777 0.154118C18.793 0.0868478 19.0168 0.0477078 19.2369 -0.00366211H19.4326C19.8753 0.182248 20.3253 0.351035 20.757 0.558961C21.1361 0.742425 21.4908 0.971142 21.8576 1.18029C22.3224 1.44326 22.7406 1.35886 23.1772 1.07511C23.7679 0.691055 24.3891 0.353481 24.9969 -0.00366211H26.171C26.7665 0.336358 27.3633 0.672709 27.9577 1.01762C28.3723 1.26224 28.8137 1.30872 29.1806 0.998051C29.7716 0.492839 30.4831 0.14903 31.2462 7.01845e-06H31.832C32.6672 0.193256 33.3619 0.649471 34.0333 1.15583C34.4503 1.47017 34.9003 1.46527 35.3528 1.21699L37.5933 7.01845e-06H38.4713C39.4631 0.326573 40.2385 0.902651 40.3388 2.00466C40.3708 2.5181 40.2728 3.03133 40.0538 3.49683C39.1586 5.42564 38.2084 7.33 37.2606 9.23313C37.1921 9.34842 37.156 9.48003 37.156 9.61413C37.156 9.74822 37.1921 9.87983 37.2606 9.99512C39.3453 14.1096 41.4207 18.2273 43.4866 22.3483C43.6696 22.7283 43.8277 23.1197 43.9599 23.5201C44.1702 24.1231 43.9415 24.6649 43.423 24.8594C42.9045 25.0538 42.4361 24.8288 42.1548 24.2637C39.9617 19.8435 37.7702 15.422 35.5803 10.9993C35.4335 10.7033 35.2672 10.6152 34.9493 10.6164C30.7668 10.6262 26.5855 10.6164 22.4031 10.6336C22.2294 10.6336 21.9628 10.729 21.8943 10.8611C19.693 15.1529 17.4477 19.4227 15.3577 23.7684C14.3708 25.8207 14.3121 28.0724 14.7707 30.3131C14.7924 30.4022 14.8201 30.4896 14.8539 30.5749C15.8469 30.3437 16.8106 30.0392 17.8024 29.9046C20.3913 29.5536 22.7223 30.2715 24.8172 31.7955C27.1175 33.4712 29.4069 35.1615 31.7146 36.8273C32.6672 37.5147 33.286 38.3696 33.2946 39.6172C34.7389 39.7652 35.9851 39.4227 37.0258 38.3684C39.3005 36.0629 41.5996 33.783 43.8841 31.4873C44.8759 30.4917 46.0352 30.0343 47.4306 30.4098C49.7151 31.0286 50.9233 33.8454 49.1611 35.9944C47.1489 38.4471 45.1046 40.8729 43.028 43.2718C41.0542 45.5553 38.5533 47.0193 35.6133 47.6749C34.582 47.9015 33.5299 48.0195 32.474 48.0272C27.9344 48.0651 23.3937 48.0455 18.8541 48.0394C18.6278 48.0458 18.4027 48.0041 18.1937 47.9171C17.7596 47.7116 17.5981 47.33 17.6862 46.864C17.7167 46.6707 17.8093 46.4925 17.9501 46.3566C18.0909 46.2206 18.2722 46.1343 18.4664 46.1106C18.6604 46.0879 18.856 46.0818 19.051 46.0922C23.412 46.0922 27.773 46.0996 32.1365 46.0922C33.7318 46.1074 35.3163 45.8284 36.8106 45.2691C38.7335 44.5334 40.4379 43.3209 41.7635 41.7454C43.7202 39.4533 45.6353 37.1368 47.57 34.8312C47.9369 34.397 48.1277 33.9261 47.9565 33.3476C47.8944 33.1252 47.7808 32.9206 47.6248 32.7503C47.4688 32.5801 47.2748 32.4491 47.0587 32.3679C46.8425 32.2867 46.6103 32.2577 46.3808 32.2832C46.1513 32.3088 45.9311 32.3881 45.738 32.5147C45.538 32.6536 45.3524 32.8121 45.184 32.988C42.9387 35.23 40.6861 37.4658 38.4579 39.7248C37.2019 40.9993 35.7185 41.6659 33.9208 41.601C33.7581 41.601 33.5942 41.6084 33.4316 41.601C32.9051 41.5488 32.3789 41.7032 31.964 42.0316C30.9319 42.8082 29.7811 42.7312 28.6499 42.1661C26.6724 41.1791 24.6888 40.2092 22.7223 39.2013C22.2209 38.9311 21.6563 38.8001 21.0872 38.8222C20.6495 38.8426 20.2109 38.825 19.7762 38.7696C19.5482 38.741 19.3387 38.6294 19.1878 38.4562C19.0369 38.2829 18.9551 38.06 18.9581 37.8303C18.9518 37.6076 19.0279 37.3904 19.1719 37.2204C19.3159 37.0504 19.5176 36.9396 19.7383 36.9093C20.9331 36.787 22.1291 36.7026 23.2653 37.2762C25.3793 38.3452 27.5015 39.4007 29.6319 40.4428C30.417 40.8293 31.1373 40.5149 31.2975 39.7371C31.3466 39.5374 31.3329 39.3274 31.2586 39.1358C31.1842 38.9441 31.0526 38.7799 30.8817 38.6656C28.349 36.8126 25.8383 34.9266 23.2665 33.1299C21.1214 31.6316 18.7502 31.4323 16.2896 32.2566C14.3329 32.911 12.397 33.602 10.4427 34.2576C10.0758 34.3799 10.0281 34.5414 10.0917 34.8899C10.7276 38.4214 11.3526 41.9541 11.9665 45.488C12.2637 47.2004 11.1104 48.7806 9.33472 49.1072C7.70576 49.408 6.07558 49.6918 4.44295 49.9756C3.74098 50.0979 3.26036 49.7689 3.13685 49.0705C2.41368 44.9935 1.69541 40.9165 0.982023 36.8396C0.686071 35.1598 0.389712 33.4813 0.0929448 31.8041C0.0721733 31.745 0.0420281 31.6897 0.00366868 31.6402L0 30.8598ZM28.6743 8.62892C30.7717 8.62892 32.869 8.63626 34.9664 8.61792C35.1486 8.61792 35.4238 8.49561 35.4971 8.34394C36.451 6.44326 37.3845 4.53319 38.2977 2.61375C38.3649 2.47188 38.2977 2.26273 38.2842 2.08538C38.1069 2.09394 37.9027 2.04869 37.7571 2.12085C37.252 2.3777 36.7678 2.67858 36.2725 2.95744C35.5803 3.34761 34.8233 3.53719 34.0712 3.28523C33.4695 3.0822 32.9094 2.72628 32.3688 2.38014C31.6167 1.89091 31.2914 1.87868 30.5797 2.43641C29.7835 3.06019 28.892 3.3892 27.899 3.09565C27.3794 2.91958 26.8893 2.66643 26.4449 2.34468C25.7111 1.85544 25.354 1.83587 24.6606 2.39849C24.5469 2.49022 24.4356 2.58562 24.317 2.67124C23.2763 3.42711 22.1719 3.54086 21.015 2.95989C20.5662 2.7324 20.1468 2.44619 19.693 2.22604C19.501 2.1343 19.2565 2.15265 19.0351 2.12085C19.0522 2.34223 19.0057 2.59541 19.0975 2.78132C19.9804 4.58905 20.8989 6.38088 21.7782 8.19106C21.9494 8.54331 22.156 8.63626 22.5254 8.63259C24.5811 8.62036 26.6259 8.63015 28.6743 8.62892ZM4.92357 47.8829C6.24801 47.6456 7.52354 47.4217 8.79907 47.1881C9.79699 47.0059 10.137 46.5595 9.96576 45.5504C9.50715 42.8462 9.02287 40.1456 8.54715 37.445C8.24508 35.7327 7.9528 34.0203 7.62872 32.3166C7.47218 31.4934 6.91207 31.1485 6.09514 31.2977C5.80775 31.3503 5.51791 31.3931 5.23052 31.4445C4.21181 31.6267 3.1931 31.8114 2.12303 32.0047C3.05735 37.297 3.98312 42.5489 4.92357 47.8829Z" fill="black"/>
<path d="M26.5452 20.6703C26.5452 21.6035 27.3255 22.3936 28.3662 22.4755C29.3311 22.5502 30.2703 22.6896 31.0774 23.2865C32.2405 24.1426 32.8507 25.2899 32.6673 26.7368C32.4667 28.2571 31.5519 29.2649 30.1297 29.7945C29.7958 29.9168 29.5867 30.0391 29.5708 30.4477C29.5537 30.8929 29.1085 31.2292 28.6634 31.2427C28.441 31.2541 28.2221 31.1838 28.048 31.045C27.8739 30.9062 27.7565 30.7086 27.718 30.4892C27.6569 30.0465 27.4257 29.9193 27.0491 29.7554C25.6292 29.1573 24.7255 28.125 24.6032 26.5289C24.5469 25.8501 24.86 25.4048 25.447 25.3192C25.9851 25.241 26.5183 25.6482 26.533 26.3099C26.5611 27.5416 28.0445 28.4577 29.4252 27.9697C30.2813 27.6663 30.8341 26.8897 30.7313 26.135C30.6091 25.2532 29.8753 24.5793 28.9251 24.5071C27.9271 24.4313 26.9684 24.2808 26.1331 23.6509C24.9419 22.741 24.3928 21.5435 24.6435 20.0734C24.8881 18.646 25.7943 17.7006 27.1371 17.1955C27.471 17.0732 27.6691 16.9631 27.6838 16.5448C27.694 16.297 27.8011 16.0632 27.982 15.8936C28.163 15.7241 28.4033 15.6325 28.6511 15.6385C29.1782 15.6385 29.583 16.0164 29.5989 16.6059C29.6087 16.9606 29.7775 17.0585 30.0648 17.1624C31.4908 17.6774 32.3884 18.6656 32.6722 20.1737C32.6962 20.3016 32.7093 20.4313 32.7113 20.5614C32.7247 21.1729 32.331 21.6377 31.7794 21.6707C31.653 21.6765 31.5267 21.6571 31.4077 21.6138C31.2888 21.5705 31.1797 21.504 31.0865 21.4183C30.9934 21.3326 30.9182 21.2292 30.8652 21.1143C30.8122 20.9993 30.7825 20.875 30.7778 20.7485C30.6555 18.9689 28.4811 18.3513 27.2105 19.3677C27.0078 19.5199 26.8426 19.7163 26.7273 19.942C26.612 20.1678 26.5497 20.4168 26.5452 20.6703Z" fill="#FFD600"/>
<path d="M15.9116 47.0487C15.9153 47.2399 15.8625 47.4279 15.7598 47.5891C15.6571 47.7504 15.5091 47.8778 15.3343 47.9552C15.1595 48.0327 14.9658 48.0569 14.7774 48.0247C14.5889 47.9926 14.4141 47.9055 14.275 47.7744C14.1358 47.6433 14.0384 47.474 13.9951 47.2878C13.9517 47.1016 13.9642 46.9068 14.0311 46.7277C14.098 46.5485 14.2163 46.3932 14.3711 46.281C14.5259 46.1688 14.7104 46.1049 14.9014 46.0971C15.0307 46.0914 15.1598 46.1117 15.2811 46.1567C15.4024 46.2017 15.5134 46.2707 15.6076 46.3594C15.7018 46.4481 15.7772 46.5548 15.8294 46.6732C15.8817 46.7916 15.9096 46.9193 15.9116 47.0487Z" fill="black"/>
<path d="M43.7155 26.6634C43.8457 26.6574 43.9758 26.6776 44.0981 26.7229C44.2203 26.7682 44.3322 26.8376 44.4271 26.9271C44.522 27.0165 44.5979 27.1241 44.6504 27.2434C44.7028 27.3628 44.7308 27.4915 44.7325 27.6219C44.7342 27.7522 44.7097 27.8816 44.6604 28.0023C44.6111 28.123 44.5381 28.2326 44.4456 28.3245C44.3531 28.4164 44.2431 28.4888 44.1221 28.5373C44.001 28.5858 43.8715 28.6095 43.7412 28.6069C43.4889 28.6019 43.2485 28.4991 43.0706 28.32C42.8928 28.141 42.7915 27.8999 42.7882 27.6476C42.7848 27.3952 42.8797 27.1515 43.0527 26.9679C43.2258 26.7842 43.4634 26.675 43.7155 26.6634Z" fill="black"/>
<path d="M6.97055 45.4208C6.84412 45.4194 6.71924 45.3928 6.60317 45.3427C6.48709 45.2926 6.38213 45.2199 6.2944 45.1289C6.20666 45.0378 6.1379 44.9302 6.09211 44.8124C6.04632 44.6945 6.02441 44.5687 6.02766 44.4423C6.03349 44.1879 6.13667 43.9453 6.31595 43.7646C6.49523 43.584 6.73695 43.479 6.99134 43.4712C7.50864 43.4712 7.99782 43.9751 7.96969 44.4876C7.95464 44.7416 7.84254 44.9802 7.65657 45.1539C7.4706 45.3276 7.22499 45.4231 6.97055 45.4208Z" fill="black"/>
</g>
<defs>
<clipPath id="clip0_320_4883">
<rect width="50" height="50" fill="white"/>
</clipPath>
</defs>
</svg>
