<svg width="48" height="46" viewBox="0 0 48 46" fill="none" xmlns="http://www.w3.org/2000/svg">
<rect x="13" y="28" width="29" height="3" fill="#FFD600"/>
<rect x="13" y="34" width="29" height="3" fill="#FFD600"/>
<path d="M9.5777 14.1085H10.1619C16.7654 14.1085 23.3689 14.1107 29.9724 14.1151C30.1272 14.126 30.2823 14.0984 30.4237 14.0349C30.5652 13.9714 30.6884 13.8739 30.7825 13.7513C34.0094 9.90628 37.2443 6.06699 40.4873 2.23346C41.7893 0.689335 43.761 0.577807 45.2207 1.98119C45.5562 2.3025 45.857 2.66098 46.1711 3.00353C47.5573 4.51446 47.1002 6.05726 46.1457 7.16457C44.563 9.00654 42.9848 10.8512 41.411 12.6985C41.046 13.126 40.6824 13.5562 40.2413 14.0753C40.498 14.0886 40.6651 14.1045 40.8335 14.1045H46.5361C47.6923 14.1045 47.9998 14.4085 47.9998 15.5397C47.9998 25.2152 47.9998 34.8907 47.9998 44.5661C47.9998 45.6615 47.6656 45.996 46.5721 45.996C33.7474 45.996 20.9236 45.996 8.10059 45.996C4.63575 45.996 1.86333 43.7774 1.14951 40.4263C1.04234 39.873 0.993065 39.3102 1.00247 38.7468C0.994449 28.9217 0.992221 19.0967 0.995786 9.27164C0.986188 7.71777 1.5158 6.20804 2.4955 4.99654C3.47519 3.78503 4.84517 2.94571 6.37485 2.61982C7.09061 2.4761 7.8226 2.42876 8.55108 2.47908C9.36783 2.53219 9.57101 2.83093 9.57235 3.6488C9.57235 6.62021 9.57235 9.59117 9.57235 12.5617L9.5777 14.1085ZM9.5777 16.2594V16.8914C9.5777 22.2341 9.5777 27.5767 9.5777 32.9194C9.5777 33.801 9.22881 34.1808 8.33853 34.2711C8.05648 34.3003 7.77443 34.3228 7.49104 34.3428C4.78145 34.5379 2.72286 37.1973 3.23083 39.8474C3.70002 42.2957 5.56345 43.8306 8.09658 43.8306C20.5007 43.8306 32.9053 43.8306 45.3103 43.8306C45.4707 43.8306 45.6311 43.8146 45.7955 43.8067V16.274C45.7385 16.2589 45.6804 16.2483 45.6217 16.2421C43.3038 16.2421 40.9872 16.2328 38.6706 16.2514C38.4661 16.2783 38.2799 16.3824 38.1506 16.5422C36.4008 18.5882 34.6751 20.6581 32.9186 22.6961C31.6273 24.1911 30.5125 25.8375 28.609 26.7469C26.7054 27.6564 24.953 28.7876 23.1283 29.8179C22.892 29.9613 22.6146 30.0232 22.3393 29.9939C22.064 29.9646 21.8061 29.8458 21.6057 29.6559C21.17 29.2749 21.2702 28.8487 21.4721 28.3906C22.4653 26.095 23.4464 23.7954 24.4396 21.4998C24.5289 21.2864 24.6467 21.0859 24.7899 20.9037C25.3005 20.2704 25.8312 19.653 26.3512 19.025C27.0971 18.1248 27.8417 17.2206 28.6343 16.2594H9.5777ZM7.37608 4.69503C7.2424 4.70432 7.14883 4.69503 7.05392 4.7176C4.73199 5.15442 3.17736 6.97471 3.17736 9.33935C3.16844 17.4189 3.16844 25.4976 3.17736 33.5753C3.17736 33.6962 3.20142 33.817 3.22147 34.0055C4.3548 32.9367 5.82131 32.2838 7.37875 32.1547L7.37608 4.69503ZM29.7265 23.34C29.8307 23.2205 29.8989 23.1475 29.9617 23.0745C32.703 19.8216 35.4442 16.5678 38.1854 13.3132C40.2627 10.8476 42.3467 8.38606 44.4133 5.91254C45.0108 5.1969 45.0456 4.64325 44.3465 4.07101C44.2435 3.98736 44.1526 3.88778 44.0551 3.7975C43.1514 2.96768 42.6154 3.00884 41.8214 3.95815L29.4364 18.7515C28.6905 19.641 27.9486 20.5319 27.188 21.4441L29.7265 23.34ZM25.9996 23.2657C25.5465 24.3425 25.1174 25.3621 24.6281 26.5226L27.9005 24.6306L25.9996 23.2657Z" fill="#151515"/>
</svg>
