<svg width="42" height="49" viewBox="0 0 42 49" fill="none" xmlns="http://www.w3.org/2000/svg">
<g clip-path="url(#clip0_320_4889)">
<path d="M39.6693 49H2.31718C2.28568 48.9662 2.24907 48.9376 2.20867 48.915C0.649721 48.3635 0.00950299 47.4711 0.0082973 45.8394V37.8506C0.0082973 36.8457 0.0082973 35.8412 0.0082973 34.8371C0.0082973 34.3741 0.210854 34.038 0.654546 33.8801C1.34299 33.6289 1.92775 34.1193 1.92775 34.9567C1.92775 38.5767 1.92775 42.1963 1.92775 45.8154C1.92775 46.727 2.28945 47.0847 3.21421 47.0859C4.72212 47.0859 6.23003 47.0859 7.73794 47.0859C7.88745 47.0859 8.03816 47.0692 8.18646 47.0608C8.18646 47.0022 8.18645 46.983 8.17801 46.9723C8.10326 46.8706 8.0273 46.7677 7.94894 46.6672C6.15719 44.4304 5.15991 41.6692 5.11196 38.8124C5.09388 38.0432 5.42061 37.6161 6.02466 37.5981C6.64921 37.5754 6.97956 37.957 7.04347 38.7203C7.08156 39.3876 7.15562 40.0525 7.26531 40.7121C7.73312 43.1585 8.98462 45.1802 10.7618 46.8957C10.918 47.0184 11.1124 47.0831 11.3116 47.0787C14.6795 47.0891 18.0477 47.0915 21.4164 47.0859C21.537 47.0859 21.6467 47.0692 21.8517 47.0548C21.6853 46.9531 21.6105 46.9017 21.5261 46.8562C16.3309 43.9744 12.6161 39.7981 10.4748 34.2725C8.98462 30.4312 6.75169 27.1342 3.53734 24.5191C3.03818 24.1124 2.50889 23.7427 1.92533 23.3061C1.92533 24.7584 1.92533 26.097 1.92533 27.4345C1.92533 28.2145 1.57569 28.693 0.977669 28.6762C0.486955 28.6631 -0.0748934 28.3508 0.00227035 27.4117C0.0155329 27.2383 0.00227035 27.0612 0.00227035 26.8866C0.00227035 18.9456 0.00227035 11.0046 0.00227035 3.06367C0.00227035 1.77527 0.540005 0.830202 1.70831 0.254787C1.90484 0.159084 2.11101 0.0837158 2.31115 -0.0012207H39.6693C41.4935 0.596924 42.0047 1.91284 41.9999 3.73359C41.9589 17.7051 41.977 31.6753 41.977 45.6456C41.977 45.837 41.977 46.0284 41.977 46.2198C41.9408 47.0787 41.608 47.8109 40.9196 48.3277C40.5434 48.61 40.0877 48.7799 39.6693 49ZM40.0551 24.701L39.5728 24.9031C37.487 25.8063 35.4434 25.7262 33.5082 24.5239C30.0527 22.3706 29.0568 17.5567 31.2825 14.1162C32.7077 11.9102 35.3457 10.44 38.3153 11.1255C38.8976 11.2583 39.4547 11.5023 40.0479 11.7045C40.0479 8.77476 40.0587 5.85701 40.0394 2.93926C40.0394 2.27652 39.6078 1.92241 38.8952 1.92241C32.3974 1.91763 25.9004 1.91763 19.4041 1.92241C19.3216 1.9241 19.2403 1.94236 19.1651 1.97608C19.0899 2.0098 19.0223 2.05828 18.9665 2.1186C18.354 2.97395 17.7053 3.81255 17.1797 4.72053C15.3639 7.85122 14.3391 11.2403 13.9243 14.8268C13.5139 18.2825 13.7208 21.783 14.5356 25.1675C15.3374 28.4717 16.6901 31.5198 18.7977 34.2186C20.0267 35.819 21.5467 37.177 23.2792 38.2226C25.0593 39.285 27.0885 39.8669 29.1654 39.9106C29.7875 39.9285 30.1661 40.236 30.2227 40.7396C30.2963 41.3904 29.8683 41.827 29.1376 41.8163C26.0294 41.7864 23.2635 40.7563 20.8124 38.9021C16.7999 35.8659 14.4403 31.7244 13.0249 27.0158C11.7902 22.9065 11.4985 18.7004 12.0205 14.4368C12.4485 10.9436 13.3962 7.61794 15.0842 4.50759C15.552 3.64507 16.0777 2.81245 16.5961 1.93557H6.52743C6.52942 2.00422 6.53912 2.07243 6.55637 2.13894C7.90794 5.33902 8.1744 8.70178 8.0695 12.1196C8.06541 12.2784 8.04234 12.4363 8.00078 12.5897C7.95312 12.8013 7.83053 12.9889 7.65531 13.1184C7.48008 13.2479 7.26384 13.3108 7.04588 13.2955C6.58651 13.2752 6.2019 12.9737 6.16814 12.5024C6.11629 11.7248 6.1163 10.9472 6.12112 10.1613C6.15453 7.65484 5.68781 5.16664 4.74784 2.83997C4.37649 1.91404 4.37529 1.91404 3.36613 1.91404C2.2364 1.91404 1.92895 2.2155 1.92895 3.32446C1.92895 8.9219 1.9386 14.5193 1.91569 20.118C1.91569 20.7365 2.07364 21.1109 2.6174 21.4614C4.47622 22.6623 6.16122 24.1092 7.62581 25.7621C9.68874 28.0829 11.1548 30.7446 12.3015 33.6097C15.0118 40.3795 19.9539 44.7735 26.8902 47.0165C27.0736 47.0685 27.2639 47.0919 27.4545 47.0859C31.209 47.0859 34.9631 47.0859 38.7168 47.0859C39.7284 47.0859 40.0599 46.7509 40.0599 45.7269C40.0599 42.9683 40.0599 40.2092 40.0599 37.4498V36.8911C39.6259 37.3003 39.2762 37.6412 38.9133 37.9678C38.6143 38.237 38.2225 38.3422 37.8945 38.1389C37.6377 37.981 37.3435 37.6604 37.3315 37.3912C37.3158 37.079 37.522 36.6997 37.7414 36.4413C38.3913 35.6745 39.111 34.9663 39.7669 34.2043C39.9412 33.988 40.0398 33.7214 40.0479 33.4446C40.0684 30.686 40.0599 27.9273 40.0599 25.1687L40.0551 24.701ZM40.0551 18.241C40.0551 17.0136 40.0696 15.785 40.0418 14.5576C40.0257 14.3179 39.9174 14.0935 39.7392 13.9308C37.9174 12.4414 35.377 12.5359 33.718 14.1975C32.059 15.8592 31.6515 17.9132 32.3713 20.1096C33.4817 23.4939 37.2169 24.5981 39.7561 22.5022C39.9233 22.3502 40.0256 22.1404 40.0418 21.916C40.0684 20.6958 40.0551 19.4648 40.0551 18.2374V18.241Z" fill="black"/>
<path d="M0.966911 30.1345C1.09175 30.1319 1.21586 30.154 1.33207 30.1993C1.44828 30.2446 1.55429 30.3123 1.64397 30.3985C1.73365 30.4847 1.80523 30.5877 1.85458 30.7015C1.90392 30.8153 1.93005 30.9377 1.93146 31.0616C1.92866 31.3191 1.82464 31.5654 1.64155 31.748C1.45846 31.9305 1.21077 32.0349 0.951237 32.039C0.700479 32.0236 0.4648 31.9149 0.291334 31.7346C0.117868 31.5543 0.0194016 31.3156 0.015625 31.0664C0.0162557 30.9432 0.0413816 30.8213 0.08956 30.7077C0.137738 30.5942 0.208022 30.4912 0.29639 30.4046C0.384757 30.318 0.48947 30.2496 0.604529 30.2033C0.719588 30.1569 0.842734 30.1335 0.966911 30.1345Z" fill="#FFD600"/>
<path d="M19.918 18.2469C19.9765 16.4733 20.2812 14.7162 20.8234 13.0251C21.0477 12.3361 21.5468 12.0107 22.1111 12.1877C22.6754 12.3648 22.9105 12.9151 22.6802 13.6041C22.0882 15.3281 21.8424 17.1505 21.9568 18.9683C22.2606 23.4149 24.0064 27.0863 27.9068 29.5315C28.535 29.9251 29.2644 30.1632 29.9565 30.4479C30.5424 30.6871 30.8415 31.0544 30.7764 31.5353C30.6883 32.1849 30.0771 32.5797 29.4067 32.2937C28.3083 31.826 27.1702 31.381 26.1936 30.7158C22.9479 28.5075 21.1297 25.3325 20.3412 21.5606C20.1157 20.472 20.0554 19.3523 19.918 18.2469Z" fill="#FFD600"/>
<path d="M30.1458 5.23619C30.1458 5.76974 29.7949 6.03173 29.3573 6.20639C28.2375 6.64776 27.204 7.27972 26.3033 8.07379C25.862 8.46498 25.4762 8.92196 25.0228 9.29879C24.4103 9.80721 23.5386 9.48541 23.4699 8.71859C23.4569 8.4205 23.5538 8.12791 23.7424 7.89554C25.1145 6.31166 26.7663 5.10341 28.7472 4.37008C29.4947 4.09613 30.1482 4.51603 30.1458 5.23619Z" fill="#FFD600"/>
<path d="M32.3487 31.808C32.3509 31.5592 32.4519 31.3212 32.6297 31.1456C32.8075 30.9701 33.0479 30.8711 33.2988 30.8702C33.4275 30.869 33.5551 30.8935 33.6742 30.942C33.7932 30.9906 33.9012 31.0623 33.9919 31.1529C34.0826 31.2436 34.1541 31.3513 34.2021 31.4698C34.2502 31.5882 34.2739 31.715 34.2718 31.8427C34.2624 32.0926 34.1574 32.3295 33.9782 32.5052C33.799 32.681 33.5591 32.7825 33.3072 32.789C33.0494 32.784 32.8039 32.678 32.6244 32.4943C32.4449 32.3106 32.3458 32.0639 32.3487 31.808Z" fill="#FFD600"/>
</g>
<defs>
<clipPath id="clip0_320_4889">
<rect width="42" height="49" fill="white"/>
</clipPath>
</defs>
</svg>
