<?xml version="1.0" encoding="utf-8"?><svg xmlns="http://www.w3.org/2000/svg" xmlns:xlink="http://www.w3.org/1999/xlink"><symbol viewBox="0 0 11 9" id="advantage-img" xmlns="http://www.w3.org/2000/svg"><path d="M8.738.44c.532-.587 1.33-.587 1.863 0 .532.587.532 1.468 0 1.957L5.012 8.56c-.532.587-1.33.587-1.863 0L.4 5.527a1.521 1.521 0 010-2.054c.532-.587 1.33-.587 1.863 0l1.863 2.054L8.738.44z"/></symbol><symbol viewBox="0 0 21 10" id="arrow-right" xmlns="http://www.w3.org/2000/svg"><path d="M20.46 5.46a.65.65 0 000-.92L16.323.404a.65.65 0 10-.92.919L19.082 5l-3.677 3.677a.65.65 0 00.919.92L20.46 5.46zM0 5.65h20v-1.3H0v1.3z"/></symbol><symbol viewBox="0 0 22 24" id="basket" xmlns="http://www.w3.org/2000/svg"><g clip-path="url(#ca)"><path d="M10.363 18.443a2.046 2.046 0 00-2.045 2.042 2.046 2.046 0 004.09 0 2.046 2.046 0 00-2.045-2.042zm6.134 0a2.046 2.046 0 00-2.045 2.042 2.046 2.046 0 004.089 0 2.046 2.046 0 00-2.044-2.042zm3.978-8.199L7.413 6.891a.614.614 0 00-.75.73L8.67 16.4h-.786L5.482 5.895a.613.613 0 00-.474-.464l-4.27-.882A.614.614 0 00.489 5.75l3.885.802L6.797 17.15a.613.613 0 00.598.477h12.07a.615.615 0 00.607-.53l.858-6.175a.613.613 0 00-.455-.678zm-8.14 3.91a.613.613 0 01-1.227 0v-2.696a.613.613 0 011.227 0v2.696zm2.625 0a.613.613 0 01-1.227 0v-1.88a.613.613 0 011.227 0v1.88zm2.625 0a.613.613 0 01-1.227 0v-1.226a.613.613 0 011.227 0v1.226z"/></g><path fill-rule="evenodd" clip-rule="evenodd" d="M16.268 4.568a2.996 2.996 0 00-1.693-.523c-.627 0-1.21.193-1.693.523-.28-.843-.492-1.752-.492-2.383C12.39.98 13.37 0 14.575 0s2.185.98 2.185 2.185c0 .631-.212 1.54-.492 2.383zm-4.722 2.274l.024.006v-.011l-.024.005zm4.972 1.217c-1.333-.33-2.766-.681-4.129-1.013a2.185 2.185 0 114.129 1.013zm4.436 1.103c-.866-.217-2.155-.538-3.618-.9a2.995 2.995 0 00.243-1.425c.87.18 1.762.45 2.308.765.596.344.969.928 1.067 1.56zM9.869 6.439c-.36-.086-.706-.167-1.03-.243a2.19 2.19 0 01-.376-2.667 2.188 2.188 0 013.147-.7c.098.738.338 1.599.61 2.353a3.01 3.01 0 00-.449.774c-.628.113-1.305.278-1.902.483zm10.124.075a3.43 3.43 0 01-.217.114c-.696-.295-1.587-.526-2.397-.672a3.01 3.01 0 00-.449-.774c.262-.727.494-1.553.599-2.273.095-.067.189-.128.278-.18a2.188 2.188 0 012.986.8 2.188 2.188 0 01-.8 2.985z"/><defs><clipPath id="ca"><path transform="translate(0 3.064)" d="M0 0h20.936v20.936H0z"/></clipPath></defs></symbol><symbol viewBox="0 0 30 30" id="calculator" xmlns="http://www.w3.org/2000/svg"><path d="M27 0H3c-.75 0-1.5.6-1.5 1.5v27c0 .9.6 1.5 1.5 1.5h24c.9 0 1.5-.6 1.5-1.5v-27C28.5.6 27.75 0 27 0zM7.5 27h-3v-3h3v3zm0-6h-3v-3h3v3zm0-6h-3v-3h3v3zm6 12h-3v-3h3v3zm0-6h-3v-3h3v3zm0-6h-3v-3h3v3zm6 12h-3v-3h3v3zm0-6h-3v-3h3v3zm0-6h-3v-3h3v3zm6 12h-3v-9h3v9zm0-12h-3v-3h3v3zm0-6h-21V3h21v6z"/></symbol><symbol viewBox="0 0 30 30" id="chat" xmlns="http://www.w3.org/2000/svg"><g clip-path="url(#ea)"><path d="M13.125 0C5.888 0 .001 4.796.001 10.689c0 2.985 1.5 5.784 4.147 7.797-.875 1.367-2.008 2.75-3.436 3.103a.938.938 0 00.187 1.847c.02 0 .101.004.236.004.97 0 4.712-.156 8.959-2.359.973.197 1.99.295 3.031.295 7.236 0 13.125-4.794 13.125-10.687S20.36 0 13.125 0z"/><path d="M29.287 28.081c-1.194-.294-2.098-1.168-2.73-2.034 2.2-1.723 3.442-4.093 3.442-6.619 0-2.114-.888-4.059-2.364-5.613-1.667 5.417-7.53 9.435-14.51 9.435a17.71 17.71 0 01-2.746-.212c-.533.256-1.054.483-1.566.686 1.892 2.906 5.634 4.892 9.937 4.892.88 0 1.732-.081 2.542-.239 2.69 1.37 5.145 1.624 6.589 1.622a8.93 8.93 0 001.333-.084.936.936 0 00.073-1.834z"/></g><defs><clipPath id="ea"><path d="M0 0h30v30H0z"/></clipPath></defs></symbol><symbol viewBox="0 0 9 6" id="chevron-down" xmlns="http://www.w3.org/2000/svg"><path d="M1 1l3.5 3.5L8 1"/></symbol><symbol viewBox="0 0 24 24" id="chevron-right" xmlns="http://www.w3.org/2000/svg"><path d="M8.59 16.59L13.17 12 8.59 7.41 10 6l6 6-6 6-1.41-1.41z"/></symbol><symbol viewBox="0 0 19 19" id="info" xmlns="http://www.w3.org/2000/svg"><path d="M9.5 6.333c-.079 0-.237.08-.158.238 0 .079.08.237.237.237.159 0 .238-.079.238-.237-.08-.158-.238-.238-.317-.238z"/><path d="M9.5 16.625A7.095 7.095 0 012.375 9.5 7.095 7.095 0 019.5 2.375 7.095 7.095 0 0116.625 9.5 7.095 7.095 0 019.5 16.625zm0-7.125v3.958"/></symbol><symbol viewBox="0 0 20 20" id="instagram" xmlns="http://www.w3.org/2000/svg"><g clip-path="url(#ia)"><path d="M10.003 4.865a5.131 5.131 0 100 10.264 5.131 5.131 0 100-10.264zm0 8.463a3.33 3.33 0 113.33-3.33 3.33 3.33 0 01-3.33 3.33z"/><path d="M14.123.064c-1.84-.086-6.397-.082-8.239 0C4.266.14 2.838.53 1.688 1.68-.236 3.605.01 6.196.01 9.997c0 3.89-.217 6.422 1.678 8.316 1.93 1.93 4.56 1.678 8.315 1.678 3.854 0 5.184.002 6.546-.526 1.853-.719 3.251-2.375 3.388-5.349.086-1.84.081-6.397 0-8.239-.165-3.51-2.05-5.64-5.814-5.813zm2.913 16.977c-1.26 1.26-3.01 1.148-7.057 1.148-4.166 0-5.837.061-7.056-1.161-1.405-1.397-1.15-3.642-1.15-7.044 0-4.604-.473-7.92 4.148-8.157 1.062-.037 1.374-.05 4.047-.05l.037.025c4.44 0 7.925-.465 8.134 4.155.048 1.054.059 1.371.059 4.04-.001 4.118.077 5.799-1.162 7.044z"/><path d="M15.338 5.862a1.2 1.2 0 100-2.398 1.2 1.2 0 000 2.398z"/></g><defs><clipPath id="ia"><path d="M0 0h20v20H0z"/></clipPath></defs></symbol><symbol viewBox="0 0 13 10" id="link-arrow" xmlns="http://www.w3.org/2000/svg"><path d="M.351 10a5.527 5.527 0 015.2-3.62v1.776c0 .341.211.614.492.82.281.136.633.136.984-.069l5.551-3.62c.282-.137.422-.478.422-.752 0-.273-.14-.614-.422-.751L7.027.164c-.281-.205-.632-.205-.984-.069-.28.137-.492.478-.492.82V2.69C2.46 2.69 0 5.08 0 8.087.07 8.84.14 9.454.351 10z"/></symbol><symbol viewBox="0 0 23 23" id="parameter-1" xmlns="http://www.w3.org/2000/svg"><path d="M22.424 18.091a.6.6 0 000-.849l-3.818-3.818a.6.6 0 10-.849.849l3.394 3.394-3.394 3.394a.6.6 0 10.849.848l3.818-3.818zM2 18.267h20v-1.2H2v1.2z"/><path d="M5.758.576a.6.6 0 00-.849 0L1.091 4.394a.6.6 0 00.848.849l3.394-3.394 3.395 3.394a.6.6 0 10.848-.849L5.758.576zM5.934 21V1h-1.2v20h1.2zm3.426-7.793s-.009.223.21.223l2.52-.003.004-2.065s-.036-.34.295-.34h1.046c.39 0 .366.34.366.34l-.004 2.059h2.467c.278 0 .265-.279.265-.279V9.334l-3.477-3.093L9.36 9.334v3.873z"/><path d="M8 9.046s.313.578.997 0l4.085-3.456 3.83 3.435c.792.57 1.088 0 1.088 0L13.082 4.57 8 9.046zm8.82-3.464h-.986l.004 1.195.981.832V5.582z"/></symbol><symbol viewBox="0 0 19 19" id="parameter-2" xmlns="http://www.w3.org/2000/svg"><path d="M19 3.353V0h-3.353v1.118H3.353V0H0v3.353h1.118v12.294H0V19h3.353v-1.118h12.294V19H19v-3.353h-1.118V3.353H19zm-2.235 12.294h-1.118v1.118H3.353v-1.118H2.235V3.353h1.118V2.235h12.294v1.118h1.118v12.294z"/><path d="M4.757 8.71l3.951-3.952.79.79L5.548 9.5l-.79-.79zm4.741 4.741l3.951-3.95.79.79-3.95 3.95-.791-.79zm-3.556-1.185l6.322-6.322.79.79-6.321 6.322-.79-.79z"/></symbol><symbol viewBox="0 0 19 20" id="parameter-3" xmlns="http://www.w3.org/2000/svg"><path d="M18.332 4.946h-8.165V.668A.668.668 0 009.5 0H.668A.667.667 0 000 .668v18.664A.668.668 0 00.668 20h17.665a.67.67 0 00.667-.668V5.614a.67.67 0 00-.668-.668zm-.667 13.718h-7.497V16.2a.668.668 0 10-1.336 0v2.465H1.335v-9.53h1.672a.667.667 0 000-1.336H1.335V1.336h7.497v6.462H7.258a.667.667 0 000 1.336h1.574v2.81a.668.668 0 101.335 0V6.283h7.498v12.382z"/></symbol><symbol viewBox="0 0 19 19" id="parameter-4" xmlns="http://www.w3.org/2000/svg"><g clip-path="url(#na)"><path d="M18.035 3.746h-3.471a.965.965 0 00-.966.965v2.506h-2.506a.965.965 0 00-.965.965v2.506H7.62a.965.965 0 00-.965.965v2.627H4.029a.966.966 0 00-.965.965v2.02c0 .534.433.966.966.966h14.005a.965.965 0 00.965-.966V4.711a.965.965 0 00-.965-.965z"/><path d="M12.954.964a.644.644 0 00-.91-.012C7.914 4.974 3.987 8.902.189 12.7a.645.645 0 00-.189.456v4.404a.644.644 0 001.287 0v-4.138c3.737-3.737 7.6-7.598 11.655-11.548a.644.644 0 00.012-.91z"/></g><defs><clipPath id="na"><path d="M0 0h19v19H0z"/></clipPath></defs></symbol><symbol viewBox="0 0 19 19" id="parameter-5" xmlns="http://www.w3.org/2000/svg"><path d="M15.756 2.058h-.573v-.624C15.183.643 14.56 0 13.791 0 13.023 0 12.4.643 12.4 1.434v.624h-1.428v-.624C10.971.643 10.347 0 9.58 0c-.768 0-1.392.643-1.392 1.434v.624H6.76v-.624C6.759.643 6.135 0 5.367 0 4.6 0 3.975.643 3.975 1.434v.624h-.73a2.218 2.218 0 00-2.216 2.215v12.512c0 1.22.994 2.215 2.215 2.215h12.512a2.218 2.218 0 002.215-2.215V4.273c0-1.22-.994-2.215-2.215-2.215zm-2.575-.624c0-.36.274-.652.61-.652.337 0 .61.292.61.652v2.552c0 .36-.273.652-.61.652-.336 0-.61-.293-.61-.652V1.434zm-4.212 0c0-.36.274-.652.61-.652.336 0 .61.292.61.652v2.552c0 .36-.274.652-.61.652-.336 0-.61-.293-.61-.652V1.434zm-4.212 0c0-.36.273-.652.61-.652.336 0 .61.292.61.652v2.552c0 .36-.274.652-.61.652-.337 0-.61-.293-.61-.652V1.434zm11.911 15.351c0 .503-.41.912-.912.912H3.244a.913.913 0 01-.912-.912V5.316h14.336v11.469z"/><path d="M5.9 7.625H3.505v2.131H5.9V7.625zm3.198 0H6.702v2.131h2.396V7.625zm3.199 0H9.902v2.131h2.395V7.625zm3.198 0h-2.396v2.131h2.396V7.625zM5.9 10.47H3.505v2.13H5.9v-2.13zm3.198 0H6.702v2.13h2.396v-2.13zm3.199 0H9.902v2.13h2.395v-2.13zm3.198 0h-2.396v2.13h2.396v-2.13zM5.9 13.314H3.505v2.13H5.9v-2.13zm3.198 0H6.702v2.13h2.396v-2.13zm3.199 0H9.902v2.13h2.395v-2.13zm3.198 0h-2.396v2.13h2.396v-2.13z"/></symbol><symbol viewBox="0 0 24 24" id="print" xmlns="http://www.w3.org/2000/svg"><path d="M16.8 8V4c0-.6-.4-1-1-1H8.2c-.6 0-1 .4-1 1v4m9.8 3h1"/><path d="M7 17H4c-.6 0-1-.4-1-1V9c0-.6.4-1 1-1h16c.6 0 1 .4 1 1v7c0 .6-.4 1-1 1h-3"/><path d="M16 21H8c-.6 0-1-.4-1-1v-6h10v6c0 .6-.4 1-1 1z"/></symbol><symbol viewBox="0 0 23 23" id="size-icon" xmlns="http://www.w3.org/2000/svg"><path d="M22.424 18.091a.6.6 0 000-.849l-3.818-3.818a.6.6 0 10-.849.849l3.394 3.394-3.394 3.394a.6.6 0 10.849.848l3.818-3.818zM2 18.267h20v-1.2H2v1.2z"/><path d="M5.758.576a.6.6 0 00-.849 0L1.091 4.394a.6.6 0 00.848.849l3.394-3.394 3.395 3.394a.6.6 0 10.848-.849L5.758.576zM5.934 21V1h-1.2v20h1.2zm3.426-7.793s-.009.223.21.223l2.52-.003.004-2.065s-.036-.34.295-.34h1.046c.39 0 .366.34.366.34l-.004 2.059h2.467c.278 0 .265-.279.265-.279V9.334l-3.477-3.093L9.36 9.334v3.873z"/><path d="M8 9.046s.313.578.997 0l4.085-3.456 3.83 3.435c.792.57 1.088 0 1.088 0L13.082 4.57 8 9.046zm8.82-3.464h-.986l.004 1.195.981.832V5.582z"/></symbol><symbol viewBox="0 0 30 30" id="tell" xmlns="http://www.w3.org/2000/svg"><g clip-path="url(#ra)"><path d="M22.808 19.846c-.98-.968-2.204-.968-3.177 0a185.79 185.79 0 00-2.217 2.222c-.2.206-.368.25-.612.112-.48-.262-.992-.474-1.454-.761-2.154-1.355-3.958-3.097-5.556-5.057-.793-.974-1.498-2.016-1.991-3.19-.1-.237-.082-.393.112-.587.743-.718 1.467-1.454 2.197-2.19 1.018-1.025 1.018-2.223-.006-3.253-.58-.587-1.161-1.161-1.742-1.748-.599-.6-1.192-1.205-1.798-1.798-.98-.955-2.203-.955-3.177.006-.75.737-1.467 1.492-2.229 2.216C.453 6.486.097 7.304.022 8.26c-.119 1.555.262 3.022.8 4.451 1.098 2.96 2.77 5.587 4.8 7.997 2.74 3.259 6.012 5.837 9.838 7.697 1.723.837 3.509 1.48 5.45 1.586 1.336.075 2.497-.262 3.427-1.305.637-.711 1.355-1.36 2.03-2.041.998-1.011 1.004-2.235.012-3.234a960.065 960.065 0 00-3.571-3.564zm-1.192-4.976l2.303-.393a10.296 10.296 0 00-2.878-5.556 10.24 10.24 0 00-5.868-2.928l-.325 2.316a7.945 7.945 0 014.545 2.266 7.944 7.944 0 012.223 4.295zm3.602-10.013A16.986 16.986 0 0015.479 0l-.325 2.316a14.728 14.728 0 018.416 4.195 14.716 14.716 0 014.126 7.96L30 14.077a17.11 17.11 0 00-4.782-9.22z"/></g><defs><clipPath id="ra"><path d="M0 0h30v30H0z"/></clipPath></defs></symbol><symbol viewBox="0 0 20 20" id="vk" xmlns="http://www.w3.org/2000/svg"><g clip-path="url(#sa)"><path d="M16.596 10.856c-.323-.408-.231-.59 0-.955.004-.004 2.673-3.692 2.948-4.943l.002-.001c.137-.456 0-.791-.661-.791h-2.187c-.556 0-.813.288-.95.61 0 0-1.114 2.664-2.689 4.392-.508.499-.743.659-1.02.659-.137 0-.35-.16-.35-.616V4.957c0-.547-.156-.791-.617-.791H7.634c-.349 0-.557.255-.557.493 0 .518.788.637.87 2.095V9.92c0 .693-.126.82-.405.82-.744 0-2.548-2.675-3.617-5.738-.216-.594-.427-.834-.987-.834H.75c-.624 0-.75.287-.75.609 0 .568.743 3.394 3.457 7.127 1.808 2.549 4.355 3.93 6.671 3.93 1.393 0 1.563-.307 1.563-.835 0-2.434-.126-2.664.571-2.664.324 0 .88.16 2.18 1.389 1.486 1.457 1.73 2.11 2.562 2.11h2.187c.623 0 .939-.307.757-.912-.416-1.272-3.226-3.89-3.352-4.065z"/></g><defs><clipPath id="sa"><path d="M0 0h20v20H0z"/></clipPath></defs></symbol><symbol viewBox="0 0 20 20" id="yt" xmlns="http://www.w3.org/2000/svg"><path d="M18.979 5.314a2.35 2.35 0 00-1.653-1.653C15.86 3.26 9.99 3.26 9.99 3.26s-5.869 0-7.336.386A2.397 2.397 0 001 5.314C.615 6.781.615 9.824.615 9.824s0 3.058.386 4.51a2.35 2.35 0 001.653 1.652c1.483.402 7.336.402 7.336.402s5.87 0 7.336-.387a2.35 2.35 0 001.653-1.652c.386-1.467.386-4.51.386-4.51s.016-3.058-.386-4.525zM8.12 12.634v-5.62L13 9.824l-4.88 2.812z"/></symbol><symbol viewBox="0 0 20 20" id="zoom" xmlns="http://www.w3.org/2000/svg"><path d="M9.167 15.833a6.667 6.667 0 100-13.333 6.667 6.667 0 000 13.333zM17.5 17.5l-3.625-3.625"/></symbol></svg>