<svg width="13" height="10" viewBox="0 0 13 10" fill="none" xmlns="http://www.w3.org/2000/svg">
<path d="M0.351352 10C1.12432 7.88243 3.16218 6.3796 5.55137 6.3796V8.15561C5.55137 8.49716 5.76219 8.77044 6.04327 8.97537C6.32435 9.11199 6.67568 9.112 7.02703 8.90708L12.5784 5.28667C12.8595 5.15006 13 4.80853 13 4.5353C13 4.26206 12.8595 3.92053 12.5784 3.78391L7.02703 0.163513C6.74595 -0.0414132 6.39462 -0.0413965 6.04327 0.0952212C5.76219 0.231839 5.55137 0.57335 5.55137 0.914894V2.69091C2.45948 2.69091 0 5.08173 0 8.08732C0.0702705 8.83872 0.14054 9.45353 0.351352 10Z" fill="#999999"/>
</svg>
