<svg width="19" height="19" viewBox="0 0 19 19" fill="none" xmlns="http://www.w3.org/2000/svg">
<g clip-path="url(#clip0_301_1406)">
<path d="M18.0347 3.74585H14.5638C14.0305 3.74585 13.5984 4.17771 13.5984 4.71116V7.21701H11.0925C10.5591 7.21701 10.1269 7.64872 10.1269 8.18221V10.6882H7.62106C7.08761 10.6882 6.6556 11.1205 6.6556 11.6535V14.2802H4.02947C3.77322 14.2802 3.52766 14.3818 3.34669 14.5626C3.16556 14.7435 3.06396 14.9902 3.06396 15.2454L3.06428 17.265C3.06428 17.799 3.49661 18.2308 4.02974 18.2308H18.0347C18.5682 18.2308 19.0001 17.799 19.0001 17.265V4.71112C19.0002 4.17771 18.5682 3.74585 18.0347 3.74585Z" fill="#FFD600"/>
<path d="M12.9537 0.963567C12.7052 0.708846 12.2982 0.703951 12.0436 0.951779C7.91488 4.97374 3.98703 8.90207 0.188613 12.7001C0.0677534 12.821 0 12.9852 0 13.1556V17.5603C0 17.9153 0.28805 18.2041 0.643618 18.2041C0.998833 18.2041 1.28739 17.9154 1.28739 17.5603V13.4219C5.02417 9.68499 8.88748 5.82368 12.9417 1.87366C13.1961 1.62587 13.2013 1.21813 12.9537 0.963567Z" fill="#FFD600"/>
</g>
<defs>
<clipPath id="clip0_301_1406">
<rect width="19" height="19" fill="white"/>
</clipPath>
</defs>
</svg>
