<svg width="19" height="20" viewBox="0 0 19 20" fill="none" xmlns="http://www.w3.org/2000/svg">
<path d="M18.3325 4.94622H10.1675V0.667935C10.1675 0.490786 10.0972 0.320906 9.97203 0.195643C9.84684 0.07038 9.67704 0 9.5 0H0.667545C0.4905 0 0.320708 0.07038 0.195518 0.195643C0.0703283 0.320906 0 0.490786 0 0.667935V19.3321C0 19.5092 0.0703283 19.6791 0.195518 19.8044C0.320708 19.9296 0.4905 20 0.667545 20H18.3325C18.5094 19.9995 18.6789 19.929 18.804 19.8038C18.9291 19.6787 18.9995 19.5091 19 19.3321V5.61415C19 5.52644 18.9827 5.43959 18.9492 5.35855C18.9156 5.27752 18.8665 5.20389 18.8045 5.14186C18.7425 5.07984 18.6689 5.03063 18.5879 4.99707C18.5069 4.9635 18.4201 4.94622 18.3325 4.94622ZM17.6649 18.6641H10.1675V16.1988C10.1675 16.0217 10.0972 15.8518 9.97203 15.7265C9.84684 15.6013 9.67704 15.5309 9.5 15.5309C9.32295 15.5309 9.15316 15.6013 9.02797 15.7265C8.90278 15.8518 8.83245 16.0217 8.83245 16.1988V18.6641H1.33509V9.13428H3.00657C3.18362 9.13428 3.35341 9.0639 3.4786 8.93864C3.60379 8.81338 3.67411 8.6435 3.67411 8.46635C3.67411 8.2892 3.60379 8.1193 3.4786 7.99404C3.35341 7.86877 3.18362 7.79839 3.00657 7.79839H1.33509V1.33587H8.83245V7.79839H7.25807C7.08103 7.79839 6.91124 7.86877 6.78605 7.99404C6.66086 8.1193 6.59052 8.2892 6.59052 8.46635C6.59052 8.6435 6.66086 8.81338 6.78605 8.93864C6.91124 9.0639 7.08103 9.13428 7.25807 9.13428H8.83245V11.9448C8.83245 12.122 8.90278 12.2919 9.02797 12.4171C9.15316 12.5424 9.32295 12.6128 9.5 12.6128C9.67704 12.6128 9.84684 12.5424 9.97203 12.4171C10.0972 12.2919 10.1675 12.122 10.1675 11.9448V6.28209H17.6649V18.6641Z" fill="#FFD600"/>
</svg>
