<svg width="19" height="19" viewBox="0 0 19 19" fill="none" xmlns="http://www.w3.org/2000/svg">
<path d="M15.7557 2.05811H15.1833V1.43359C15.1833 0.642769 14.5593 0 13.7914 0C13.023 0 12.3995 0.642769 12.3995 1.43359V2.05759H10.9711V1.43359C10.9711 0.642769 10.3471 0 9.57925 0C8.81137 0 8.18737 0.642769 8.18737 1.43359V2.05759H6.75899V1.43359C6.75899 0.642769 6.13499 0 5.36711 0C4.59923 0 3.97522 0.642769 3.97522 1.43359V2.05759H3.24435C2.02294 2.05759 1.02881 3.05172 1.02881 4.27314V16.7845C1.02881 18.0059 2.02294 19 3.24435 19H15.7557C16.9776 19 17.9712 18.0059 17.9712 16.7845V4.27314C17.9712 3.05224 16.9771 2.05811 15.7557 2.05811ZM13.1815 1.43359C13.1815 1.07441 13.4552 0.781957 13.7914 0.781957C14.1282 0.781957 14.4013 1.07441 14.4013 1.43359V3.9859C14.4013 4.34508 14.1282 4.63753 13.7914 4.63753C13.4552 4.63753 13.1815 4.34508 13.1815 3.9859V1.43359ZM8.96933 1.43359C8.96933 1.07441 9.24301 0.781957 9.57925 0.781957C9.91549 0.781957 10.1892 1.07441 10.1892 1.43359V3.9859C10.1892 4.34508 9.91549 4.63753 9.57925 4.63753C9.24301 4.63753 8.96933 4.34508 8.96933 3.9859V1.43359ZM4.75666 1.43359C4.75666 1.07441 5.03035 0.781957 5.36659 0.781957C5.70283 0.781957 5.97651 1.07441 5.97651 1.43359V3.9859C5.97651 4.34508 5.70283 4.63753 5.36659 4.63753C5.03035 4.63753 4.75666 4.34508 4.75666 3.9859V1.43359ZM16.668 16.785C16.668 17.288 16.2587 17.6973 15.7557 17.6973H3.24435C2.7413 17.6973 2.33207 17.288 2.33207 16.785V5.31627H16.668V16.785Z" fill="#FFD600"/>
<path d="M5.90028 7.62463H3.50488V9.75625H5.90028V7.62463Z" fill="#FFD600"/>
<path d="M9.09807 7.62463H6.70215V9.75625H9.09807V7.62463Z" fill="#FFD600"/>
<path d="M12.2973 7.62463H9.90186V9.75625H12.2973V7.62463Z" fill="#FFD600"/>
<path d="M15.495 7.62463H13.0991V9.75625H15.495V7.62463Z" fill="#FFD600"/>
<path d="M5.90028 10.4699H3.50488V12.6H5.90028V10.4699Z" fill="#FFD600"/>
<path d="M9.09807 10.4699H6.70215V12.6H9.09807V10.4699Z" fill="#FFD600"/>
<path d="M12.2973 10.4699H9.90186V12.6H12.2973V10.4699Z" fill="#FFD600"/>
<path d="M15.495 10.4699H13.0991V12.6H15.495V10.4699Z" fill="#FFD600"/>
<path d="M5.90028 13.3141H3.50488V15.4441H5.90028V13.3141Z" fill="#FFD600"/>
<path d="M9.09807 13.3141H6.70215V15.4441H9.09807V13.3141Z" fill="#FFD600"/>
<path d="M12.2973 13.3141H9.90186V15.4441H12.2973V13.3141Z" fill="#FFD600"/>
<path d="M15.495 13.3141H13.0991V15.4441H15.495V13.3141Z" fill="#FFD600"/>
</svg>
