<svg width="23" height="23" viewBox="0 0 23 23" fill="none" xmlns="http://www.w3.org/2000/svg">
<path d="M22.4243 18.091C22.6586 17.8566 22.6586 17.4767 22.4243 17.2424L18.6059 13.424C18.3716 13.1897 17.9917 13.1897 17.7574 13.424C17.523 13.6584 17.523 14.0383 17.7574 14.2726L21.1515 17.6667L17.7574 21.0608C17.523 21.2951 17.523 21.675 17.7574 21.9093C17.9917 22.1436 18.3716 22.1436 18.6059 21.9093L22.4243 18.091ZM2 18.2667H22V17.0667H2V18.2667Z" fill="#FFD600"/>
<path d="M5.75776 0.575735C5.52344 0.341421 5.14355 0.341421 4.90923 0.575735L1.09085 4.39411C0.85654 4.62843 0.85654 5.00833 1.09085 5.24264C1.32517 5.47696 1.70507 5.47696 1.93938 5.24264L5.3335 1.84853L8.72761 5.24264C8.96192 5.47696 9.34182 5.47696 9.57614 5.24264C9.81045 5.00833 9.81045 4.62843 9.57614 4.39411L5.75776 0.575735ZM5.9335 21L5.9335 1L4.7335 1L4.7335 21L5.9335 21Z" fill="#FFD600"/>
<path d="M9.35991 13.2066C9.35991 13.2066 9.35103 13.4301 9.56939 13.4301C9.84104 13.4301 12.0901 13.4272 12.0901 13.4272L12.0938 11.3617C12.0938 11.3617 12.0583 11.0212 12.3888 11.0212H13.4347C13.8255 11.0212 13.8014 11.3617 13.8014 11.3617L13.797 13.4205C13.797 13.4205 15.9295 13.4205 16.2644 13.4205C16.5416 13.4205 16.529 13.1422 16.529 13.1422V9.33429L13.0516 6.24103L9.35991 9.33429C9.35991 9.33429 9.35991 13.2066 9.35991 13.2066Z" fill="#FFD600"/>
<path d="M8 9.04626C8 9.04626 8.31347 9.62398 8.99704 9.04626L13.0822 5.5903L16.9123 9.02479C17.7036 9.59548 18 9.02479 18 9.02479L13.0822 4.56995L8 9.04626Z" fill="#FFD600"/>
<path d="M16.8192 5.58209H15.834L15.8381 6.77676L16.8192 7.60911V5.58209Z" fill="#FFD600"/>
</svg>
