<svg width="19" height="19" viewBox="0 0 19 19" fill="none" xmlns="http://www.w3.org/2000/svg">
<path d="M19 3.35294V0H15.6471V1.11765H3.35294V0H0V3.35294H1.11765V15.6471H0V19H3.35294V17.8824H15.6471V19H19V15.6471H17.8824V3.35294H19ZM16.7647 15.6471H15.6471V16.7647H3.35294V15.6471H2.23529V3.35294H3.35294V2.23529H15.6471V3.35294H16.7647V15.6471Z" fill="#FFD600"/>
<path d="M4.75732 8.70941L8.70823 4.7585L9.49841 5.54868L5.5475 9.49959L4.75732 8.70941Z" fill="#FFD600"/>
<path d="M9.49805 13.4513L13.449 9.50039L14.2391 10.2906L10.2882 14.2415L9.49805 13.4513Z" fill="#FFD600"/>
<path d="M5.94238 12.2656L12.2638 5.94416L13.054 6.73433L6.73256 13.0557L5.94238 12.2656Z" fill="#FFD600"/>
</svg>
