<svg width="24" height="24" viewBox="0 0 24 24" fill="none" xmlns="http://www.w3.org/2000/svg">
<path d="M16.8002 8V4C16.8002 3.4 16.4002 3 15.8002 3H8.2002C7.6002 3 7.2002 3.4 7.2002 4V8" stroke="#FFD600" stroke-width="1.5" stroke-miterlimit="10" stroke-linecap="round" stroke-linejoin="round"/>
<path d="M17 11H18" stroke="#FFD600" stroke-width="1.5" stroke-miterlimit="10" stroke-linecap="round" stroke-linejoin="round"/>
<path d="M7 17H4C3.4 17 3 16.6 3 16V9C3 8.4 3.4 8 4 8H20C20.6 8 21 8.4 21 9V16C21 16.6 20.6 17 20 17H17" stroke="#FFD600" stroke-width="1.5" stroke-miterlimit="10" stroke-linecap="round" stroke-linejoin="round"/>
<path d="M16 21H8C7.4 21 7 20.6 7 20V14H17V20C17 20.6 16.6 21 16 21Z" stroke="#FFD600" stroke-width="1.5" stroke-miterlimit="10" stroke-linecap="round" stroke-linejoin="round"/>
</svg>
