<svg width="12" height="11" viewBox="0 0 12 11" fill="none" xmlns="http://www.w3.org/2000/svg">
<path fill-rule="evenodd" clip-rule="evenodd" d="M0.824937 4.7167C4.04616 3.30547 6.19414 2.3751 7.26889 1.92559C10.3375 0.642153 10.9751 0.419206 11.3907 0.411845C11.4822 0.410225 11.6865 0.433005 11.8189 0.541026C11.9307 0.632237 11.9615 0.755451 11.9762 0.841929C11.9909 0.928407 12.0092 1.12541 11.9947 1.27934C11.8284 3.03627 11.1088 7.29987 10.7428 9.26766C10.5879 10.1003 10.2829 10.3795 9.98764 10.4068C9.34596 10.4662 8.8587 9.98039 8.2372 9.57073C7.26468 8.92969 6.71527 8.53064 5.77127 7.9051C4.68032 7.18218 5.38754 6.78486 6.00927 6.13551C6.17198 5.96558 8.99923 3.37969 9.05395 3.14511C9.06079 3.11577 9.06715 3.00641 9.00254 2.94866C8.93793 2.89092 8.84257 2.91067 8.77376 2.92637C8.67622 2.94863 7.1226 3.98122 4.11292 6.02413C3.67193 6.32863 3.2725 6.47699 2.91462 6.46921C2.52009 6.46064 1.76117 6.2449 1.19699 6.06049C0.504996 5.8343 -0.0449838 5.71471 0.00290711 5.33057C0.0278516 5.13049 0.301862 4.92587 0.824937 4.7167Z" fill="#898886"/>
</svg>
