<svg width="16" height="16" viewBox="0 0 16 16" fill="none" xmlns="http://www.w3.org/2000/svg">
<g clip-path="url(#clip0_301_1520)">
<path d="M15.1946 3.57956C14.6645 3.81212 14.0995 3.96627 13.5106 4.04112C14.1165 3.67936 14.5789 3.11088 14.7963 2.42567C14.2314 2.76248 13.6077 3.00039 12.943 3.13315C12.4066 2.56199 11.642 2.20825 10.808 2.20825C9.18991 2.20825 7.88721 3.52164 7.88721 5.13175C7.88721 5.36342 7.90681 5.58618 7.95493 5.79825C5.52506 5.67974 3.37498 4.51515 1.93061 2.74109C1.67844 3.17859 1.53053 3.67936 1.53053 4.21844C1.53053 5.23066 2.05179 6.12794 2.82877 6.64741C2.3592 6.6385 1.89853 6.50217 1.50825 6.28743C1.50825 6.29634 1.50825 6.30793 1.50825 6.31951C1.50825 7.73983 2.52137 8.91956 3.84991 9.19133C3.612 9.25638 3.35271 9.28756 3.08361 9.28756C2.89649 9.28756 2.70759 9.27687 2.53028 9.23767C2.90897 10.3951 3.98356 11.2461 5.26131 11.2737C4.26691 12.0516 3.00431 12.5203 1.63745 12.5203C1.39776 12.5203 1.16788 12.5096 0.937988 12.4802C2.23267 13.3151 3.76704 13.7918 5.4217 13.7918C10.8 13.7918 13.7404 9.33657 13.7404 5.4748C13.7404 5.3456 13.736 5.22086 13.7298 5.097C14.3098 4.68534 14.7972 4.17121 15.1946 3.57956Z" fill="white"/>
</g>
<defs>
<clipPath id="clip0_301_1520">
<rect width="14.2566" height="14.2566" fill="white" transform="translate(0.937988 0.871704)"/>
</clipPath>
</defs>
</svg>
