<svg width="15" height="15" viewBox="0 0 15 15" fill="none" xmlns="http://www.w3.org/2000/svg">
<g clip-path="url(#clip0_301_1516)">
<path d="M14.265 10.615C14.2288 10.5544 14.0049 10.0679 12.9277 9.06809C11.7999 8.02114 11.9514 8.19114 13.3098 6.38086C14.1371 5.27837 14.4678 4.60509 14.3643 4.31726C14.2658 4.0429 13.6573 4.11528 13.6573 4.11528L11.6341 4.12706C11.6341 4.12706 11.4843 4.10686 11.3724 4.17335C11.2638 4.23899 11.194 4.39048 11.194 4.39048C11.194 4.39048 10.8733 5.24386 10.4458 5.96932C9.54446 7.50019 9.18341 7.58098 9.03613 7.48588C8.6936 7.26454 8.77944 6.59547 8.77944 6.12081C8.77944 4.63707 9.00415 4.01849 8.34097 3.85859C8.12047 3.80557 7.95889 3.77022 7.39586 3.76433C6.67376 3.75675 6.06192 3.76685 5.71603 3.93601C5.48543 4.04879 5.30785 4.30043 5.41642 4.31473C5.55023 4.33241 5.85321 4.39637 6.01395 4.61519C6.22183 4.89712 6.21425 5.53169 6.21425 5.53169C6.21425 5.53169 6.33376 7.27801 5.93568 7.49514C5.66216 7.6441 5.28765 7.34029 4.48393 5.9508C4.07238 5.23965 3.76099 4.45276 3.76099 4.45276C3.76099 4.45276 3.70124 4.30632 3.59436 4.22805C3.46475 4.13295 3.28296 4.10265 3.28296 4.10265L1.35907 4.11443C1.35907 4.11443 1.0704 4.12285 0.964361 4.24825C0.870102 4.36018 0.956787 4.59078 0.956787 4.59078C0.956787 4.59078 2.46325 8.11456 4.16833 9.89118C5.73286 11.5197 7.50863 11.4128 7.50863 11.4128H8.3132C8.3132 11.4128 8.55642 11.3859 8.68014 11.252C8.79459 11.1292 8.79039 10.8986 8.79039 10.8986C8.79039 10.8986 8.77439 9.8188 9.27599 9.65974C9.77001 9.5032 10.4046 10.7033 11.077 11.1654C11.5853 11.5146 11.9716 11.438 11.9716 11.438L13.7701 11.4128C13.7701 11.4128 14.711 11.3547 14.265 10.615Z" fill="white"/>
</g>
<defs>
<clipPath id="clip0_301_1516">
<rect width="13.4646" height="13.4646" fill="white" transform="translate(0.92041 0.871704)"/>
</clipPath>
</defs>
</svg>
