<svg width="11" height="12" viewBox="0 0 11 12" fill="none" xmlns="http://www.w3.org/2000/svg">
<path d="M9.39024 2.01593C8.3554 0.984682 6.97561 0.411766 5.51916 0.411766C2.49129 0.411766 0.0383269 2.85621 0.0383269 5.87357C0.0383269 6.82843 0.30662 7.78329 0.76655 8.58538L0 11.4118L2.91289 10.6479C3.71777 11.068 4.5993 11.2972 5.51916 11.2972C8.54704 11.2972 11 8.85274 11 5.83538C10.9617 4.42218 10.4251 3.04718 9.39024 2.01593ZM8.16376 7.82149C8.04878 8.12704 7.51219 8.4326 7.2439 8.47079C7.01394 8.50899 6.70732 8.50899 6.4007 8.4326C6.20906 8.35621 5.94077 8.27982 5.63415 8.12704C4.25436 7.55413 3.37282 6.17913 3.29617 6.06454C3.21951 5.98815 2.72126 5.33885 2.72126 4.65135C2.72126 3.96385 3.0662 3.65829 3.18118 3.50552C3.29617 3.35274 3.44948 3.35274 3.56446 3.35274C3.64111 3.35274 3.7561 3.35274 3.83275 3.35274C3.90941 3.35274 4.02439 3.31454 4.13937 3.5819C4.25435 3.84927 4.52265 4.53677 4.56097 4.57496C4.5993 4.65135 4.5993 4.72774 4.56097 4.80413C4.52265 4.88052 4.48432 4.9569 4.40766 5.03329C4.33101 5.10968 4.25435 5.22427 4.21603 5.26246C4.13937 5.33885 4.06272 5.41524 4.13937 5.52982C4.21603 5.6826 4.48432 6.10274 4.90592 6.48468C5.44251 6.94302 5.86411 7.09579 6.01742 7.17218C6.17073 7.24857 6.24739 7.21038 6.32404 7.13399C6.40069 7.0576 6.66899 6.75204 6.74565 6.59927C6.8223 6.44649 6.93728 6.48468 7.05226 6.52288C7.16725 6.56107 7.85714 6.90482 7.97212 6.98121C8.12543 7.0576 8.20209 7.09579 8.24042 7.13399C8.27874 7.24857 8.27874 7.51593 8.16376 7.82149Z" fill="#898886"/>
</svg>
