<svg width="16" height="16" viewBox="0 0 16 16" fill="none" xmlns="http://www.w3.org/2000/svg">
<g clip-path="url(#clip0_301_1530)">
<g clip-path="url(#clip1_301_1530)">
<path d="M12.2121 8.89805L12.2071 8.94013C10.9734 8.32524 10.8443 8.24333 10.685 8.48233C10.5745 8.64783 10.2524 9.02316 10.1554 9.13424C10.0572 9.24364 9.95959 9.25206 9.79297 9.17632C9.62466 9.09216 9.08439 8.91544 8.44482 8.3432C7.94663 7.89718 7.61226 7.35018 7.51352 7.18187C7.34914 6.898 7.69305 6.8576 8.0061 6.26516C8.0622 6.14734 8.03359 6.05477 7.99208 5.97118C7.95 5.88703 7.61507 5.06232 7.47481 4.73356C7.34016 4.40592 7.20159 4.44744 7.0978 4.44744C6.77465 4.41939 6.53846 4.42387 6.33032 4.64043C5.42482 5.63569 5.65316 6.66236 6.42794 7.75412C7.95056 9.74688 8.7618 10.1138 10.2452 10.6232C10.6457 10.7506 11.011 10.7326 11.2999 10.6911C11.6219 10.64 12.2912 10.2866 12.4309 9.89106C12.574 9.49554 12.574 9.16734 12.5319 9.0916C12.4904 9.01587 12.3804 8.97379 12.2121 8.89805Z" fill="white"/>
<path d="M13.9014 2.80631C9.58767 -1.36379 2.44863 1.6607 2.44582 7.54361C2.44582 8.71952 2.75383 9.86625 3.34066 10.8789L2.38916 14.3359L5.94325 13.4091C10.3782 15.8047 15.8515 12.6237 15.8538 7.54697C15.8538 5.76516 15.1581 4.08825 13.893 2.82819L13.9014 2.80631ZM14.7328 7.52846C14.7295 11.8108 10.0286 14.4852 6.31073 12.2994L6.10876 12.1794L4.00491 12.7264L4.56874 10.6814L4.43466 10.471C2.12099 6.78791 4.77913 1.97431 9.16185 1.97431C10.6508 1.97431 12.0483 2.55497 13.1008 3.60689C14.1527 4.64984 14.7328 6.04735 14.7328 7.52846Z" fill="white"/>
</g>
</g>
<defs>
<clipPath id="clip0_301_1530">
<rect width="15.0487" height="15.0487" fill="white" transform="translate(0.805176 0.0795898)"/>
</clipPath>
<clipPath id="clip1_301_1530">
<rect width="13.4646" height="13.4646" fill="white" transform="translate(2.38916 0.871704)"/>
</clipPath>
</defs>
</svg>
